<svg width="34" height="34" viewBox="0 0 34 34" fill="none" xmlns="http://www.w3.org/2000/svg">
<path fill-rule="evenodd" clip-rule="evenodd" d="M30.1976 16.2386C24.0809 14.6618 19.3012 9.88204 17.7243 3.76534L17.0453 1.13208L16.3663 3.76534C14.7894 9.88204 10.0097 14.6618 3.89303 16.2386L1.25977 16.9176L3.89303 17.598C10.0097 19.1749 14.7894 23.9546 16.3663 30.0699L17.0453 32.7046L17.7243 30.0699C19.3012 23.9546 24.0809 19.1749 30.1976 17.598L32.8309 16.9176L30.1976 16.2386Z" fill="#858585"/>
<path fill-rule="evenodd" clip-rule="evenodd" d="M26.5164 10.9516C26.5164 9.32145 28.3037 7.44576 30.0223 7.44576C28.3682 7.44576 26.5164 5.55042 26.5164 3.94128C26.5164 5.55042 24.6814 7.44576 23.0119 7.44576C24.6182 7.44576 26.5164 9.31163 26.5164 10.9516Z" fill="#858585"/>
</svg>
