<svg width="621" height="546" viewBox="0 0 621 546" fill="none" xmlns="http://www.w3.org/2000/svg">
<g clip-path="url(#clip0_4839_19602)">
<rect width="621" height="546" rx="36" fill="white"/>
<g opacity="0.7">
<path d="M9.96209 169.413L10.0273 163.043L10.2561 163.045L18.6286 168.681C18.6653 165.096 18.7071 164.734 16.7191 163.302L16.8174 163.017L19.2697 163.805L19.1987 170.747L18.722 170.742L10.6151 165.242L10.6104 165.7C10.5925 167.455 10.4506 168.273 12.2095 169.722L12.1305 169.988L9.96209 169.413ZM14.2402 155.789L14.1839 161.301C14.966 161.29 17.142 161.121 18.1092 159.796C18.612 159.115 18.7547 158.22 18.5335 157.474C18.3484 156.919 17.9725 156.381 17.406 155.822L17.599 155.595C19.076 156.64 19.7104 158.02 19.6598 159.24C19.6109 160.288 18.987 161.617 17.7398 162.348C16.1664 163.267 13.3069 163.123 11.8457 162.402C10.6501 161.818 9.91611 160.857 9.75638 159.692C9.63166 158.832 9.85373 157.633 10.8542 156.785C11.6816 156.068 13.1723 155.778 14.2402 155.789ZM13.5865 158.167C13.5891 157.919 13.6109 157.652 13.4028 157.478C13.2139 157.305 12.6616 157.223 11.782 157.443C11.0745 157.626 10.5175 158.002 10.2433 158.705C10.0862 159.142 10.1185 159.714 10.4379 160.194C11.1143 161.193 12.9059 161.307 13.5543 161.313L13.5865 158.167ZM9.65369 152.95L9.65682 152.644L11.3732 152.662C10.6734 152.083 9.67282 151.081 9.6814 150.242C9.68491 149.898 9.74544 149.575 10.0909 149.368C10.3977 149.2 10.9498 149.301 11.2149 149.494C11.499 149.688 11.5914 149.975 11.5684 150.356C11.5235 151.023 11.1173 151.572 11.6258 152.207C12.0591 152.726 12.5937 152.675 13.6807 152.686L17.5521 152.725C18.5629 152.736 18.9454 152.625 19.1216 152.188L19.3886 152.191L19.3591 155.071L19.0921 155.068C18.9246 154.666 18.621 154.51 17.5149 154.499L12.7281 154.45C12.0607 154.443 11.5656 154.361 11.1575 155.101L10.9287 155.099C10.6704 154.238 10.2573 153.604 9.65369 152.95ZM9.90789 146.746C9.74523 145.867 9.99085 144.229 11.0882 143.23C12.3588 142.079 14.4986 141.72 16.0585 142.117C17.4664 142.456 19.0016 143.406 19.6134 145.129C19.9461 146.162 19.8556 147.554 19.025 148.575C17.8272 150.07 15.7057 150.506 14.4861 150.398C13.0377 150.288 11.2704 149.659 10.3342 147.952C10.0715 147.53 9.99914 147.148 9.90789 146.746ZM13.399 148.537C13.9705 148.6 17.8771 148.926 18.9984 147.449C19.4238 146.882 19.4505 146.138 19.2086 145.544C18.6877 144.261 16.9359 143.976 16.1931 143.873C15.0693 143.728 11.7335 143.542 10.632 144.942C10.149 145.547 10.1589 146.444 10.3446 146.941C10.8845 148.225 12.6182 148.414 13.399 148.537ZM7.42482 135.347L11.0512 135.384C11.2592 135.386 11.4697 135.394 11.6828 135.406C11.8906 135.419 12.0828 135.439 12.2593 135.467L12.2602 135.381C11.9604 135.201 11.7106 134.975 11.5106 134.703C11.3054 134.425 11.1526 134.111 11.0522 133.762C10.9466 133.412 10.8958 133.043 10.8998 132.653C10.9068 131.967 11.0218 131.396 11.2449 130.94C11.468 130.48 11.8094 130.138 12.2693 129.914C12.7292 129.684 13.3231 129.573 14.051 129.581L19.6193 129.638L19.6062 130.917L14.1237 130.861C13.4114 130.853 12.8768 131.012 12.5199 131.336C12.1631 131.654 11.9813 132.149 11.9744 132.82C11.9679 133.454 12.0849 133.962 12.3254 134.344C12.5607 134.721 12.9115 134.995 13.3777 135.166C13.844 135.332 14.4151 135.419 15.0909 135.426L19.5596 135.471L19.5464 136.766L7.41158 136.642L7.42482 135.347ZM10.9817 124.643C10.9921 123.624 11.2286 122.869 11.6912 122.38C12.1538 121.891 12.8868 121.651 13.8902 121.662L19.7003 121.721L19.6906 122.665L18.4247 122.901L18.424 122.964C18.7335 123.206 18.9935 123.458 19.2041 123.721C19.4094 123.983 19.5648 124.286 19.6705 124.63C19.771 124.969 19.8188 125.386 19.8137 125.879C19.8084 126.399 19.7127 126.861 19.5266 127.265C19.3405 127.663 19.0617 127.978 18.6902 128.208C18.3187 128.433 17.8496 128.542 17.2829 128.537C16.4302 128.528 15.7786 128.183 15.328 127.503C14.8774 126.822 14.6384 125.79 14.6109 124.407L14.5636 122.932L14.0411 122.927C13.3028 122.919 12.7839 123.073 12.4843 123.387C12.1847 123.701 12.0319 124.146 12.026 124.723C12.0215 125.171 12.0821 125.598 12.2079 126.004C12.3337 126.411 12.4832 126.798 12.6562 127.163L11.6695 127.551C11.4759 127.164 11.3114 126.721 11.1762 126.22C11.0409 125.72 10.9761 125.194 10.9817 124.643ZM15.4759 122.957L15.5172 124.26C15.5478 125.326 15.7143 126.079 16.0166 126.519C16.3189 126.959 16.7508 127.182 17.3123 127.188C17.801 127.193 18.1639 127.048 18.4009 126.754C18.6379 126.46 18.7589 126.069 18.7639 125.58C18.7716 124.821 18.5674 124.198 18.1512 123.71C17.735 123.222 17.1058 122.974 16.2636 122.965L15.4759 122.957ZM11.0558 115.876C11.0662 114.862 11.3236 114.098 11.828 113.583C12.3273 113.068 13.1254 112.816 14.2224 112.827L19.7907 112.884L19.7776 114.163L14.2951 114.107C13.5828 114.1 13.0482 114.258 12.6913 114.582C12.3345 114.901 12.1527 115.396 12.1458 116.066C12.1361 117.013 12.3971 117.681 12.9286 118.071C13.4602 118.461 14.2355 118.662 15.2545 118.672L19.731 118.718L19.7178 120.012L11.1704 119.925L11.1811 118.88L12.4153 118.697L12.416 118.627C12.1163 118.442 11.8665 118.208 11.6666 117.925C11.4615 117.643 11.3088 117.326 11.2083 116.977C11.1027 116.628 11.0519 116.26 11.0558 115.876ZM19.9953 108.136C19.9842 109.217 19.6063 110.071 18.8615 110.698C18.1168 111.319 17.0166 111.623 15.5608 111.608C14.0894 111.593 12.9827 111.259 12.2406 110.607C11.4934 109.954 11.1252 109.093 11.1362 108.022C11.1408 107.569 11.2046 107.175 11.3277 106.838C11.4507 106.501 11.6148 106.212 11.8201 105.969C12.0202 105.727 12.2484 105.524 12.5049 105.36L12.5059 105.267C12.3445 105.286 12.1233 105.304 11.8423 105.322C11.5614 105.34 11.3325 105.348 11.1557 105.346L7.7321 105.311L7.74534 104.017L19.8801 104.141L19.8694 105.186L18.6508 105.369L18.6503 105.423C18.9034 105.587 19.1327 105.795 19.3381 106.046C19.5435 106.293 19.7069 106.588 19.8282 106.933C19.9443 107.272 20 107.673 19.9953 108.136ZM18.9211 107.922C18.9305 107.007 18.6771 106.357 18.1611 105.972C17.6451 105.587 16.8749 105.389 15.8507 105.379L15.6168 105.377C14.5301 105.365 13.6938 105.539 13.1078 105.897C12.5218 106.25 12.224 106.902 12.2142 107.853C12.2061 108.649 12.5067 109.247 13.1162 109.648C13.7205 110.05 14.5503 110.256 15.6057 110.267C16.6559 110.277 17.469 110.091 18.0449 109.707C18.6208 109.317 18.9129 108.722 18.9211 107.922ZM17.6154 96.801C18.1613 96.8065 18.62 96.949 18.9915 97.2284C19.3579 97.5025 19.632 97.8953 19.814 98.4068C19.996 98.913 20.0834 99.517 20.0762 100.219C20.0701 100.817 20.018 101.334 19.92 101.769C19.8219 102.205 19.6855 102.586 19.5105 102.912L18.3173 102.9C18.4925 102.553 18.6527 102.139 18.798 101.657C18.9433 101.174 19.0186 100.681 19.0237 100.177C19.0313 99.4387 18.9172 98.9019 18.6814 98.5668C18.4457 98.2316 18.1224 98.0619 17.7117 98.0577C17.4777 98.0553 17.2717 98.1208 17.0935 98.2541C16.9102 98.3822 16.7338 98.6014 16.5642 98.9117C16.3895 99.2219 16.1979 99.6515 15.9895 100.201C15.7759 100.744 15.5657 101.215 15.3589 101.614C15.1469 102.007 14.8916 102.311 14.593 102.526C14.2944 102.736 13.9086 102.839 13.4355 102.834C12.7128 102.827 12.1621 102.53 11.7833 101.944C11.3994 101.352 11.2123 100.581 11.222 99.6292C11.2273 99.1145 11.2842 98.6341 11.3928 98.188C11.4962 97.7367 11.6357 97.3169 11.8112 96.9288L12.844 97.3761C12.6896 97.7281 12.5583 98.1037 12.4503 98.503C12.3422 98.9023 12.286 99.3099 12.2818 99.7258C12.2757 100.324 12.3697 100.785 12.564 101.109C12.7583 101.428 13.0271 101.59 13.3702 101.593C13.6354 101.596 13.8545 101.525 14.0275 101.382C14.2006 101.233 14.3643 100.995 14.5184 100.669C14.6725 100.343 14.8537 99.9133 15.0619 99.3799C15.265 98.8464 15.4751 98.3858 15.6922 97.998C15.9042 97.6102 16.162 97.3139 16.4657 97.109C16.7642 96.8988 17.1474 96.7962 17.6154 96.801Z" fill="#303030"/>
</g>
<g filter="url(#filter0_d_4839_19602)">
<circle cx="55.3572" cy="48.3201" r="18.24" fill="#FFFEFE"/>
</g>
<line x1="47.1503" y1="41.9357" x2="63.5663" y2="41.9357" stroke="#858585" stroke-width="1.824" stroke-linecap="round"/>
<line x1="47.1503" y1="47.4083" x2="63.5663" y2="47.4083" stroke="#858585" stroke-width="1.824" stroke-linecap="round"/>
<line x1="47.1503" y1="52.879" x2="63.5663" y2="52.879" stroke="#858585" stroke-width="1.824" stroke-linecap="round"/>
<g filter="url(#filter1_f_4839_19602)">
<circle cx="191.203" cy="255.689" r="75.2026" fill="#4593FF"/>
</g>
<g filter="url(#filter2_d_4839_19602)">
<circle cx="190.893" cy="255.995" r="69.12" fill="white"/>
</g>
<line x1="266.853" y1="256.071" x2="339.813" y2="256.071" stroke="black" stroke-opacity="0.2" stroke-width="0.768" stroke-linecap="round"/>
<g filter="url(#filter3_f_4839_19602)">
<circle cx="353.988" cy="146.601" r="37.6013" fill="#9598FF"/>
</g>
<g filter="url(#filter4_f_4839_19602)">
<circle cx="376.261" cy="257.961" r="37.6013" fill="#FBB2E0"/>
</g>
<g filter="url(#filter5_f_4839_19602)">
<circle cx="367.047" cy="362.41" r="37.6013" fill="#79BCF8"/>
</g>
<line x1="256.484" y1="220.432" x2="320.3" y2="156.616" stroke="black" stroke-opacity="0.2" stroke-width="0.768" stroke-linecap="round"/>
<line x1="0.384" y1="-0.384" x2="90.6329" y2="-0.384" transform="matrix(0.707107 0.707107 0.707107 -0.707107 258.02 288.713)" stroke="black" stroke-opacity="0.2" stroke-width="0.768" stroke-linecap="round"/>
<circle cx="354.021" cy="147.4" r="28.416" fill="white"/>
<circle cx="373.221" cy="252.615" r="28.416" fill="white"/>
<circle cx="370.146" cy="363.977" r="28.416" fill="white"/>
<path d="M364.961 245.685V248.512C364.961 249.478 364.666 250.273 364.076 250.896C363.486 251.518 362.716 251.829 361.766 251.829C360.783 251.829 360.013 251.555 359.456 251.006C358.907 250.457 358.633 249.687 358.633 248.696V245.685C358.633 245.038 358.62 244.579 358.596 244.309C358.579 244.006 358.526 243.785 358.436 243.646C358.354 243.506 358.203 243.392 357.981 243.302L358.018 242.994C358.338 243.019 358.711 243.031 359.136 243.031C359.554 243.031 359.923 243.019 360.242 242.994L360.279 243.302C360.034 243.408 359.87 243.531 359.788 243.67C359.706 243.801 359.661 244.014 359.653 244.309C359.628 245.12 359.616 245.579 359.616 245.685V248.671C359.616 249.458 359.812 250.068 360.206 250.502C360.599 250.936 361.144 251.154 361.84 251.154C362.602 251.154 363.204 250.908 363.646 250.416C364.089 249.925 364.31 249.237 364.31 248.352V245.685C364.31 245.038 364.297 244.579 364.273 244.309C364.248 244.006 364.191 243.789 364.101 243.658C364.011 243.519 363.847 243.4 363.609 243.302L363.646 242.994C364.023 243.019 364.355 243.031 364.642 243.031C365.027 243.031 365.35 243.019 365.612 242.994L365.649 243.302C365.412 243.4 365.248 243.515 365.158 243.646C365.076 243.777 365.022 243.998 364.998 244.309C364.973 244.579 364.961 245.038 364.961 245.685ZM369.539 247.074C369.465 247.074 369.334 247.037 369.146 246.963C368.966 246.89 368.843 246.853 368.777 246.853C368.474 246.853 368.22 247.021 368.015 247.357C367.819 247.692 367.721 248.143 367.721 248.708V249.286C367.721 249.736 367.729 250.134 367.745 250.478C367.761 250.748 367.815 250.945 367.905 251.068C368.003 251.19 368.179 251.289 368.433 251.362L368.396 251.645C368.118 251.621 367.749 251.608 367.29 251.608C366.914 251.608 366.586 251.621 366.307 251.645L366.271 251.362C366.484 251.272 366.623 251.17 366.688 251.055C366.762 250.941 366.807 250.748 366.823 250.478C366.848 250.216 366.86 249.818 366.86 249.286V248.979C366.86 248.471 366.848 248.086 366.823 247.824C366.807 247.578 366.758 247.41 366.676 247.32C366.602 247.23 366.451 247.164 366.221 247.123V246.865C366.754 246.603 367.188 246.316 367.524 246.005L367.782 246.103C367.741 246.423 367.716 246.82 367.708 247.295L367.721 247.307C367.884 246.906 368.097 246.595 368.359 246.374C368.622 246.144 368.9 246.029 369.195 246.029C369.433 246.029 369.621 246.087 369.76 246.202C369.908 246.316 369.982 246.464 369.982 246.644C369.982 246.931 369.834 247.074 369.539 247.074ZM375.129 246.472L375.031 246.927H373.876C374.146 247.23 374.281 247.631 374.281 248.131C374.281 248.721 374.089 249.216 373.704 249.618C373.319 250.003 372.856 250.195 372.315 250.195C371.799 250.195 371.361 250.044 371 249.74C370.689 249.978 370.533 250.265 370.533 250.601C370.533 250.986 370.812 251.19 371.369 251.215L372.856 251.264C373.421 251.281 373.855 251.44 374.158 251.743C374.47 252.047 374.625 252.444 374.625 252.935C374.625 253.509 374.363 253.996 373.839 254.398C373.315 254.807 372.643 255.012 371.824 255.012C371.16 255.012 370.644 254.881 370.275 254.619C369.915 254.357 369.735 254.004 369.735 253.562C369.735 253.013 370.062 252.509 370.718 252.051C370.128 251.838 369.833 251.448 369.833 250.883C369.833 250.351 370.116 249.867 370.681 249.433C370.402 249.056 370.263 248.622 370.263 248.131C370.263 247.565 370.46 247.078 370.853 246.668C371.246 246.267 371.717 246.066 372.266 246.066C372.52 246.066 372.786 246.107 373.065 246.189C373.36 246.271 373.626 246.312 373.863 246.312C374.306 246.312 374.695 246.296 375.031 246.263L375.129 246.472ZM373.949 253.144C373.949 252.513 373.511 252.198 372.635 252.198C371.963 252.198 371.463 252.186 371.136 252.161C370.734 252.538 370.533 252.935 370.533 253.353C370.533 253.648 370.66 253.882 370.914 254.054C371.168 254.234 371.537 254.324 372.02 254.324C372.651 254.324 373.13 254.213 373.458 253.992C373.786 253.771 373.949 253.488 373.949 253.144ZM372.241 246.558C371.922 246.558 371.668 246.685 371.48 246.939C371.299 247.193 371.209 247.565 371.209 248.057C371.209 248.589 371.303 248.999 371.492 249.286C371.688 249.564 371.963 249.704 372.315 249.704C373.003 249.704 373.347 249.2 373.347 248.192C373.347 247.684 373.245 247.287 373.04 247C372.844 246.705 372.577 246.558 372.241 246.558ZM375.154 249.028C375.154 248.176 375.412 247.463 375.928 246.89C376.444 246.316 377.083 246.029 377.845 246.029C378.435 246.029 378.927 246.226 379.32 246.619C379.721 246.996 379.922 247.484 379.922 248.082C379.922 248.188 379.914 248.282 379.897 248.364H376.113C376.096 248.495 376.088 248.651 376.088 248.831C376.088 249.454 376.252 249.966 376.579 250.367C376.907 250.76 377.325 250.957 377.833 250.957C378.226 250.957 378.554 250.883 378.816 250.736C379.086 250.58 379.348 250.322 379.602 249.962L379.897 250.146C379.692 250.662 379.402 251.072 379.025 251.375C378.648 251.678 378.21 251.829 377.71 251.829C376.956 251.829 376.342 251.555 375.867 251.006C375.392 250.457 375.154 249.798 375.154 249.028ZM376.199 247.873H378.84C378.832 247.479 378.709 247.168 378.472 246.939C378.242 246.701 377.943 246.582 377.575 246.582C377.223 246.582 376.924 246.701 376.678 246.939C376.432 247.176 376.272 247.488 376.199 247.873ZM385.486 247.873V249.286C385.486 249.736 385.494 250.134 385.51 250.478C385.527 250.748 385.572 250.941 385.646 251.055C385.719 251.17 385.863 251.272 386.076 251.362L386.039 251.645C385.383 251.588 384.728 251.588 384.073 251.645L384.036 251.362C384.249 251.272 384.388 251.17 384.454 251.055C384.527 250.941 384.572 250.748 384.589 250.478C384.613 250.216 384.626 249.818 384.626 249.286V247.983C384.626 247.639 384.527 247.361 384.331 247.148C384.142 246.935 383.884 246.828 383.557 246.828C383.139 246.828 382.803 246.955 382.549 247.209C382.303 247.463 382.18 247.791 382.18 248.192V249.286C382.18 249.736 382.189 250.134 382.205 250.478C382.221 250.748 382.266 250.941 382.34 251.055C382.414 251.17 382.557 251.272 382.77 251.362L382.733 251.645C382.078 251.588 381.423 251.588 380.767 251.645L380.73 251.362C380.943 251.272 381.083 251.17 381.148 251.055C381.222 250.941 381.267 250.748 381.283 250.478C381.308 250.216 381.32 249.818 381.32 249.286V248.979C381.32 248.471 381.308 248.086 381.283 247.824C381.267 247.578 381.218 247.41 381.136 247.32C381.062 247.23 380.911 247.164 380.681 247.123V246.865C381.214 246.603 381.648 246.316 381.984 246.005L382.242 246.103C382.209 246.513 382.184 246.857 382.168 247.135L382.18 247.148C382.574 246.402 383.122 246.029 383.827 246.029C384.45 246.029 384.916 246.283 385.228 246.791C385.4 247.103 385.486 247.463 385.486 247.873ZM386.534 246.754L386.497 246.496C386.784 246.283 387.018 246.07 387.198 245.857C387.386 245.644 387.579 245.37 387.775 245.034L388.083 245.108C388.066 245.304 388.033 245.706 387.984 246.312C388.459 246.304 388.889 246.288 389.274 246.263L389.373 246.472L389.274 246.927H387.96V249.814C387.96 250.347 388.025 250.703 388.156 250.883C388.263 251.014 388.418 251.08 388.623 251.08C388.844 251.08 389.057 250.977 389.262 250.773L389.471 251.129C389.397 251.317 389.258 251.477 389.053 251.608C388.857 251.739 388.635 251.805 388.39 251.805C387.996 251.805 387.681 251.661 387.444 251.375C387.222 251.104 387.112 250.633 387.112 249.962V247.467C387.112 247.221 387.075 247.053 387.001 246.963C386.936 246.873 386.78 246.804 386.534 246.754Z" fill="#303030"/>
<path d="M371.563 267.762H370.834V263.1C370.834 262.923 370.834 262.771 370.834 262.645C370.837 262.516 370.84 262.399 370.843 262.294C370.849 262.186 370.857 262.077 370.866 261.966C370.773 262.062 370.686 262.144 370.605 262.213C370.524 262.279 370.423 262.362 370.303 262.461L369.552 263.064L369.16 262.555L370.942 261.183H371.563V267.762ZM378.109 267.762H373.798V267.136L375.558 265.35C375.885 265.02 376.159 264.726 376.381 264.468C376.606 264.21 376.777 263.956 376.894 263.707C377.011 263.455 377.07 263.179 377.07 262.879C377.07 262.507 376.959 262.224 376.737 262.029C376.518 261.831 376.228 261.732 375.868 261.732C375.553 261.732 375.274 261.786 375.031 261.894C374.788 262.002 374.539 262.155 374.284 262.353L373.884 261.849C374.058 261.702 374.247 261.571 374.451 261.457C374.658 261.343 374.878 261.253 375.112 261.187C375.349 261.121 375.601 261.088 375.868 261.088C376.273 261.088 376.623 261.159 376.917 261.3C377.211 261.441 377.437 261.642 377.596 261.903C377.758 262.164 377.839 262.474 377.839 262.834C377.839 263.182 377.77 263.506 377.632 263.806C377.494 264.103 377.301 264.399 377.052 264.693C376.803 264.984 376.512 265.293 376.179 265.62L374.748 267.046V267.078H378.109V267.762Z" fill="#303030"/>
<path d="M361.887 357.045V359.871C361.887 360.838 361.592 361.632 361.002 362.255C360.412 362.877 359.642 363.189 358.692 363.189C357.709 363.189 356.939 362.914 356.382 362.365C355.833 361.817 355.558 361.047 355.558 360.055V357.045C355.558 356.398 355.546 355.939 355.522 355.669C355.505 355.365 355.452 355.144 355.362 355.005C355.28 354.866 355.128 354.751 354.907 354.661L354.944 354.354C355.264 354.378 355.636 354.391 356.062 354.391C356.48 354.391 356.849 354.378 357.168 354.354L357.205 354.661C356.959 354.767 356.795 354.89 356.714 355.03C356.632 355.161 356.587 355.374 356.578 355.669C356.554 356.48 356.541 356.938 356.541 357.045V360.031C356.541 360.817 356.738 361.428 357.131 361.862C357.525 362.296 358.069 362.513 358.766 362.513C359.527 362.513 360.13 362.267 360.572 361.776C361.014 361.284 361.236 360.596 361.236 359.711V357.045C361.236 356.398 361.223 355.939 361.199 355.669C361.174 355.365 361.117 355.148 361.027 355.017C360.937 354.878 360.773 354.759 360.535 354.661L360.572 354.354C360.949 354.378 361.281 354.391 361.567 354.391C361.952 354.391 362.276 354.378 362.538 354.354L362.575 354.661C362.337 354.759 362.173 354.874 362.083 355.005C362.001 355.136 361.948 355.357 361.924 355.669C361.899 355.939 361.887 356.398 361.887 357.045ZM366.465 358.433C366.391 358.433 366.26 358.396 366.072 358.323C365.891 358.249 365.769 358.212 365.703 358.212C365.4 358.212 365.146 358.38 364.941 358.716C364.745 359.052 364.646 359.502 364.646 360.068V360.645C364.646 361.096 364.654 361.493 364.671 361.837C364.687 362.107 364.741 362.304 364.831 362.427C364.929 362.55 365.105 362.648 365.359 362.722L365.322 363.004C365.044 362.98 364.675 362.968 364.216 362.968C363.839 362.968 363.512 362.98 363.233 363.004L363.196 362.722C363.409 362.632 363.549 362.529 363.614 362.415C363.688 362.3 363.733 362.107 363.749 361.837C363.774 361.575 363.786 361.178 363.786 360.645V360.338C363.786 359.83 363.774 359.445 363.749 359.183C363.733 358.937 363.684 358.769 363.602 358.679C363.528 358.589 363.377 358.523 363.147 358.482V358.224C363.68 357.962 364.114 357.676 364.45 357.364L364.708 357.463C364.667 357.782 364.642 358.179 364.634 358.655L364.646 358.667C364.81 358.265 365.023 357.954 365.285 357.733C365.547 357.504 365.826 357.389 366.121 357.389C366.358 357.389 366.547 357.446 366.686 357.561C366.834 357.676 366.907 357.823 366.907 358.003C366.907 358.29 366.76 358.433 366.465 358.433ZM372.055 357.831L371.957 358.286H370.802C371.072 358.589 371.207 358.99 371.207 359.49C371.207 360.08 371.015 360.576 370.629 360.977C370.244 361.362 369.782 361.554 369.241 361.554C368.725 361.554 368.287 361.403 367.926 361.1C367.615 361.337 367.459 361.624 367.459 361.96C367.459 362.345 367.738 362.55 368.295 362.574L369.782 362.624C370.347 362.64 370.781 362.8 371.084 363.103C371.395 363.406 371.551 363.803 371.551 364.295C371.551 364.868 371.289 365.356 370.765 365.757C370.24 366.167 369.569 366.371 368.749 366.371C368.086 366.371 367.57 366.24 367.201 365.978C366.841 365.716 366.66 365.364 366.66 364.921C366.66 364.373 366.988 363.869 367.644 363.41C367.054 363.197 366.759 362.808 366.759 362.243C366.759 361.71 367.041 361.227 367.607 360.793C367.328 360.416 367.189 359.982 367.189 359.49C367.189 358.925 367.385 358.437 367.779 358.028C368.172 357.626 368.643 357.426 369.192 357.426C369.446 357.426 369.712 357.467 369.991 357.549C370.285 357.631 370.552 357.671 370.789 357.671C371.232 357.671 371.621 357.655 371.957 357.622L372.055 357.831ZM370.875 364.504C370.875 363.873 370.437 363.557 369.56 363.557C368.889 363.557 368.389 363.545 368.061 363.521C367.66 363.897 367.459 364.295 367.459 364.713C367.459 365.007 367.586 365.241 367.84 365.413C368.094 365.593 368.463 365.683 368.946 365.683C369.577 365.683 370.056 365.573 370.384 365.351C370.711 365.13 370.875 364.848 370.875 364.504ZM369.167 357.917C368.848 357.917 368.594 358.044 368.405 358.298C368.225 358.552 368.135 358.925 368.135 359.416C368.135 359.949 368.229 360.358 368.418 360.645C368.614 360.924 368.889 361.063 369.241 361.063C369.929 361.063 370.273 360.559 370.273 359.552C370.273 359.044 370.171 358.646 369.966 358.36C369.769 358.065 369.503 357.917 369.167 357.917ZM372.08 360.387C372.08 359.535 372.338 358.822 372.854 358.249C373.37 357.676 374.009 357.389 374.771 357.389C375.361 357.389 375.852 357.585 376.245 357.979C376.647 358.356 376.848 358.843 376.848 359.441C376.848 359.547 376.839 359.642 376.823 359.724H373.038C373.022 359.855 373.014 360.01 373.014 360.191C373.014 360.813 373.178 361.325 373.505 361.727C373.833 362.12 374.251 362.316 374.759 362.316C375.152 362.316 375.48 362.243 375.742 362.095C376.012 361.94 376.274 361.681 376.528 361.321L376.823 361.505C376.618 362.021 376.327 362.431 375.951 362.734C375.574 363.037 375.135 363.189 374.636 363.189C373.882 363.189 373.268 362.914 372.793 362.365C372.317 361.817 372.08 361.157 372.08 360.387ZM373.124 359.232H375.766C375.758 358.839 375.635 358.528 375.398 358.298C375.168 358.061 374.869 357.942 374.501 357.942C374.148 357.942 373.849 358.061 373.604 358.298C373.358 358.536 373.198 358.847 373.124 359.232ZM382.412 359.232V360.645C382.412 361.096 382.42 361.493 382.436 361.837C382.453 362.107 382.498 362.3 382.571 362.415C382.645 362.529 382.788 362.632 383.001 362.722L382.965 363.004C382.309 362.947 381.654 362.947 380.998 363.004L380.962 362.722C381.175 362.632 381.314 362.529 381.379 362.415C381.453 362.3 381.498 362.107 381.515 361.837C381.539 361.575 381.551 361.178 381.551 360.645V359.343C381.551 358.999 381.453 358.72 381.257 358.507C381.068 358.294 380.81 358.188 380.482 358.188C380.065 358.188 379.729 358.315 379.475 358.569C379.229 358.822 379.106 359.15 379.106 359.552V360.645C379.106 361.096 379.114 361.493 379.131 361.837C379.147 362.107 379.192 362.3 379.266 362.415C379.34 362.529 379.483 362.632 379.696 362.722L379.659 363.004C379.004 362.947 378.348 362.947 377.693 363.004L377.656 362.722C377.869 362.632 378.008 362.529 378.074 362.415C378.148 362.3 378.193 362.107 378.209 361.837C378.234 361.575 378.246 361.178 378.246 360.645V360.338C378.246 359.83 378.234 359.445 378.209 359.183C378.193 358.937 378.144 358.769 378.062 358.679C377.988 358.589 377.836 358.523 377.607 358.482V358.224C378.139 357.962 378.574 357.676 378.91 357.364L379.168 357.463C379.135 357.872 379.11 358.216 379.094 358.495L379.106 358.507C379.499 357.762 380.048 357.389 380.753 357.389C381.375 357.389 381.842 357.643 382.154 358.151C382.326 358.462 382.412 358.822 382.412 359.232ZM383.46 358.114L383.423 357.856C383.71 357.643 383.943 357.43 384.124 357.217C384.312 357.004 384.504 356.729 384.701 356.394L385.008 356.467C384.992 356.664 384.959 357.065 384.91 357.671C385.385 357.663 385.815 357.647 386.2 357.622L386.299 357.831L386.2 358.286H384.885V361.174C384.885 361.706 384.951 362.062 385.082 362.243C385.189 362.374 385.344 362.439 385.549 362.439C385.77 362.439 385.983 362.337 386.188 362.132L386.397 362.488C386.323 362.677 386.184 362.837 385.979 362.968C385.782 363.099 385.561 363.164 385.315 363.164C384.922 363.164 384.607 363.021 384.369 362.734C384.148 362.464 384.038 361.993 384.038 361.321V358.827C384.038 358.581 384.001 358.413 383.927 358.323C383.861 358.233 383.706 358.163 383.46 358.114Z" fill="#303030"/>
<path d="M368.493 379.119H367.764V374.457C367.764 374.28 367.764 374.129 367.764 374.003C367.767 373.874 367.77 373.757 367.773 373.652C367.779 373.544 367.786 373.434 367.795 373.323C367.702 373.419 367.615 373.502 367.534 373.571C367.453 373.637 367.353 373.719 367.233 373.818L366.481 374.421L366.09 373.913L367.872 372.54H368.493V379.119ZM375.039 379.119H370.728V378.494L372.487 376.707C372.814 376.377 373.089 376.083 373.311 375.825C373.536 375.567 373.707 375.314 373.824 375.065C373.941 374.813 373.999 374.537 373.999 374.237C373.999 373.865 373.888 373.581 373.666 373.386C373.447 373.188 373.158 373.089 372.798 373.089C372.483 373.089 372.204 373.143 371.961 373.251C371.718 373.359 371.469 373.512 371.214 373.71L370.813 373.206C370.987 373.059 371.176 372.929 371.38 372.815C371.587 372.701 371.808 372.611 372.042 372.545C372.279 372.479 372.531 372.446 372.798 372.446C373.203 372.446 373.552 372.516 373.846 372.657C374.14 372.798 374.367 372.999 374.526 373.26C374.688 373.521 374.769 373.832 374.769 374.192C374.769 374.54 374.7 374.864 374.562 375.164C374.424 375.461 374.23 375.756 373.981 376.05C373.732 376.341 373.441 376.65 373.108 376.977L371.677 378.404V378.435H375.039V379.119Z" fill="#303030"/>
<path d="M345.758 139.701V142.527C345.758 143.494 345.463 144.289 344.873 144.911C344.283 145.534 343.513 145.845 342.563 145.845C341.58 145.845 340.81 145.571 340.253 145.022C339.704 144.473 339.43 143.703 339.43 142.712V139.701C339.43 139.054 339.417 138.595 339.393 138.325C339.376 138.022 339.323 137.801 339.233 137.661C339.151 137.522 338.999 137.407 338.778 137.317L338.815 137.01C339.135 137.035 339.507 137.047 339.933 137.047C340.351 137.047 340.72 137.035 341.039 137.01L341.076 137.317C340.83 137.424 340.667 137.547 340.585 137.686C340.503 137.817 340.458 138.03 340.449 138.325C340.425 139.136 340.413 139.595 340.413 139.701V142.687C340.413 143.473 340.609 144.084 341.002 144.518C341.396 144.952 341.94 145.169 342.637 145.169C343.399 145.169 344.001 144.923 344.443 144.432C344.885 143.94 345.107 143.252 345.107 142.368V139.701C345.107 139.054 345.094 138.595 345.07 138.325C345.045 138.022 344.988 137.805 344.898 137.674C344.808 137.534 344.644 137.415 344.406 137.317L344.443 137.01C344.82 137.035 345.152 137.047 345.438 137.047C345.823 137.047 346.147 137.035 346.409 137.01L346.446 137.317C346.208 137.415 346.045 137.53 345.954 137.661C345.873 137.792 345.819 138.013 345.795 138.325C345.77 138.595 345.758 139.054 345.758 139.701ZM350.336 141.09C350.262 141.09 350.131 141.053 349.943 140.979C349.763 140.905 349.64 140.868 349.574 140.868C349.271 140.868 349.017 141.036 348.812 141.372C348.616 141.708 348.517 142.159 348.517 142.724V143.301C348.517 143.752 348.526 144.149 348.542 144.493C348.558 144.764 348.612 144.96 348.702 145.083C348.8 145.206 348.976 145.304 349.23 145.378L349.193 145.661C348.915 145.636 348.546 145.624 348.087 145.624C347.71 145.624 347.383 145.636 347.104 145.661L347.067 145.378C347.28 145.288 347.42 145.186 347.485 145.071C347.559 144.956 347.604 144.764 347.62 144.493C347.645 144.231 347.657 143.834 347.657 143.301V142.994C347.657 142.486 347.645 142.101 347.62 141.839C347.604 141.593 347.555 141.425 347.473 141.335C347.399 141.245 347.248 141.18 347.018 141.139V140.881C347.551 140.619 347.985 140.332 348.321 140.021L348.579 140.119C348.538 140.438 348.513 140.836 348.505 141.311L348.517 141.323C348.681 140.922 348.894 140.61 349.156 140.389C349.419 140.16 349.697 140.045 349.992 140.045C350.23 140.045 350.418 140.102 350.557 140.217C350.705 140.332 350.778 140.479 350.778 140.66C350.778 140.946 350.631 141.09 350.336 141.09ZM355.926 140.487L355.828 140.942H354.673C354.943 141.245 355.078 141.647 355.078 142.146C355.078 142.736 354.886 143.232 354.501 143.633C354.116 144.018 353.653 144.211 353.112 144.211C352.596 144.211 352.158 144.059 351.797 143.756C351.486 143.994 351.33 144.28 351.33 144.616C351.33 145.001 351.609 145.206 352.166 145.231L353.653 145.28C354.218 145.296 354.652 145.456 354.955 145.759C355.267 146.062 355.422 146.459 355.422 146.951C355.422 147.524 355.16 148.012 354.636 148.413C354.111 148.823 353.44 149.028 352.621 149.028C351.957 149.028 351.441 148.897 351.072 148.634C350.712 148.372 350.532 148.02 350.532 147.578C350.532 147.029 350.859 146.525 351.515 146.066C350.925 145.853 350.63 145.464 350.63 144.899C350.63 144.366 350.912 143.883 351.478 143.449C351.199 143.072 351.06 142.638 351.06 142.146C351.06 141.581 351.257 141.094 351.65 140.684C352.043 140.283 352.514 140.082 353.063 140.082C353.317 140.082 353.583 140.123 353.862 140.205C354.157 140.287 354.423 140.328 354.66 140.328C355.103 140.328 355.492 140.311 355.828 140.279L355.926 140.487ZM354.746 147.16C354.746 146.529 354.308 146.214 353.432 146.214C352.76 146.214 352.26 146.201 351.932 146.177C351.531 146.554 351.33 146.951 351.33 147.369C351.33 147.664 351.457 147.897 351.711 148.069C351.965 148.249 352.334 148.34 352.817 148.34C353.448 148.34 353.927 148.229 354.255 148.008C354.583 147.787 354.746 147.504 354.746 147.16ZM353.038 140.573C352.719 140.573 352.465 140.7 352.276 140.954C352.096 141.208 352.006 141.581 352.006 142.073C352.006 142.605 352.1 143.015 352.289 143.301C352.485 143.58 352.76 143.719 353.112 143.719C353.8 143.719 354.144 143.215 354.144 142.208C354.144 141.7 354.042 141.303 353.837 141.016C353.64 140.721 353.374 140.573 353.038 140.573ZM355.951 143.043C355.951 142.191 356.209 141.479 356.725 140.905C357.241 140.332 357.88 140.045 358.642 140.045C359.232 140.045 359.723 140.242 360.117 140.635C360.518 141.012 360.719 141.499 360.719 142.097C360.719 142.204 360.711 142.298 360.694 142.38H356.909C356.893 142.511 356.885 142.667 356.885 142.847C356.885 143.469 357.049 143.981 357.376 144.383C357.704 144.776 358.122 144.973 358.63 144.973C359.023 144.973 359.351 144.899 359.613 144.751C359.883 144.596 360.145 144.338 360.399 143.977L360.694 144.162C360.489 144.678 360.199 145.087 359.822 145.39C359.445 145.693 359.007 145.845 358.507 145.845C357.753 145.845 357.139 145.571 356.664 145.022C356.189 144.473 355.951 143.813 355.951 143.043ZM356.995 141.888H359.637C359.629 141.495 359.506 141.184 359.269 140.954C359.039 140.717 358.74 140.598 358.372 140.598C358.019 140.598 357.72 140.717 357.475 140.954C357.229 141.192 357.069 141.503 356.995 141.888ZM366.283 141.888V143.301C366.283 143.752 366.291 144.149 366.307 144.493C366.324 144.764 366.369 144.956 366.442 145.071C366.516 145.186 366.66 145.288 366.872 145.378L366.836 145.661C366.18 145.603 365.525 145.603 364.87 145.661L364.833 145.378C365.046 145.288 365.185 145.186 365.25 145.071C365.324 144.956 365.369 144.764 365.386 144.493C365.41 144.231 365.423 143.834 365.423 143.301V141.999C365.423 141.655 365.324 141.376 365.128 141.163C364.939 140.95 364.681 140.844 364.353 140.844C363.936 140.844 363.6 140.971 363.346 141.225C363.1 141.479 362.977 141.806 362.977 142.208V143.301C362.977 143.752 362.985 144.149 363.002 144.493C363.018 144.764 363.063 144.956 363.137 145.071C363.211 145.186 363.354 145.288 363.567 145.378L363.53 145.661C362.875 145.603 362.219 145.603 361.564 145.661L361.527 145.378C361.74 145.288 361.879 145.186 361.945 145.071C362.019 144.956 362.064 144.764 362.08 144.493C362.105 144.231 362.117 143.834 362.117 143.301V142.994C362.117 142.486 362.105 142.101 362.08 141.839C362.064 141.593 362.015 141.425 361.933 141.335C361.859 141.245 361.707 141.18 361.478 141.139V140.881C362.011 140.619 362.445 140.332 362.781 140.021L363.039 140.119C363.006 140.528 362.981 140.873 362.965 141.151L362.977 141.163C363.37 140.418 363.919 140.045 364.624 140.045C365.246 140.045 365.713 140.299 366.025 140.807C366.197 141.118 366.283 141.479 366.283 141.888ZM367.331 140.77L367.294 140.512C367.581 140.299 367.814 140.086 367.995 139.873C368.183 139.66 368.376 139.386 368.572 139.05L368.879 139.124C368.863 139.32 368.83 139.722 368.781 140.328C369.256 140.32 369.686 140.303 370.071 140.279L370.17 140.487L370.071 140.942H368.756V143.83C368.756 144.362 368.822 144.719 368.953 144.899C369.06 145.03 369.215 145.095 369.42 145.095C369.641 145.095 369.854 144.993 370.059 144.788L370.268 145.145C370.194 145.333 370.055 145.493 369.85 145.624C369.654 145.755 369.432 145.82 369.187 145.82C368.793 145.82 368.478 145.677 368.24 145.39C368.019 145.12 367.909 144.649 367.909 143.977V141.483C367.909 141.237 367.872 141.069 367.798 140.979C367.732 140.889 367.577 140.819 367.331 140.77Z" fill="#303030"/>
<path d="M352.364 161.777H351.635V157.115C351.635 156.938 351.635 156.787 351.635 156.661C351.638 156.532 351.641 156.415 351.644 156.31C351.65 156.202 351.658 156.092 351.667 155.981C351.574 156.077 351.487 156.16 351.406 156.229C351.325 156.295 351.224 156.377 351.104 156.476L350.353 157.079L349.961 156.571L351.743 155.198H352.364V161.777ZM358.91 161.777H354.599V161.152L356.359 159.365C356.686 159.035 356.96 158.741 357.182 158.483C357.407 158.225 357.578 157.972 357.695 157.723C357.812 157.471 357.871 157.195 357.871 156.895C357.871 156.523 357.76 156.239 357.538 156.044C357.319 155.846 357.029 155.747 356.669 155.747C356.354 155.747 356.075 155.801 355.832 155.909C355.589 156.017 355.34 156.17 355.085 156.368L354.685 155.864C354.859 155.717 355.048 155.587 355.252 155.473C355.459 155.359 355.679 155.269 355.913 155.203C356.15 155.137 356.402 155.104 356.669 155.104C357.074 155.104 357.424 155.174 357.718 155.315C358.012 155.456 358.238 155.657 358.397 155.918C358.559 156.179 358.64 156.49 358.64 156.85C358.64 157.198 358.571 157.522 358.433 157.822C358.295 158.119 358.102 158.414 357.853 158.708C357.604 158.999 357.313 159.308 356.98 159.635L355.549 161.062V161.093H358.91V161.777Z" fill="#303030"/>
<path d="M175.734 243.677V251.522C175.734 251.994 175.754 253.095 175.793 254.825C175.813 255.533 175.921 256.054 176.117 256.388C176.334 256.703 176.737 256.988 177.327 257.243L177.238 257.981C176.471 257.922 175.587 257.892 174.584 257.892C173.561 257.892 172.667 257.922 171.9 257.981L171.812 257.243C172.343 257.027 172.706 256.752 172.903 256.418C173.099 256.083 173.227 255.553 173.286 254.825C173.345 254.176 173.375 253.075 173.375 251.522V247.718H162.286V251.522C162.286 251.994 162.306 253.095 162.345 254.825C162.365 255.533 162.473 256.054 162.669 256.388C162.886 256.703 163.289 256.988 163.879 257.243L163.79 257.981C163.023 257.922 162.139 257.892 161.136 257.892C160.114 257.892 159.219 257.922 158.452 257.981L158.364 257.243C158.895 257.027 159.258 256.752 159.455 256.418C159.671 256.083 159.799 255.553 159.838 254.825C159.897 254.176 159.927 253.075 159.927 251.522V243.677C159.927 242.124 159.897 241.023 159.838 240.374C159.799 239.647 159.671 239.116 159.455 238.782C159.258 238.448 158.895 238.172 158.364 237.956L158.452 237.219C159.219 237.278 160.114 237.307 161.136 237.307C162.139 237.307 163.023 237.278 163.79 237.219L163.879 237.956C163.269 238.212 162.856 238.507 162.64 238.841C162.443 239.175 162.345 239.686 162.345 240.374C162.345 240.945 162.335 241.485 162.316 241.996C162.296 242.508 162.286 243.068 162.286 243.677V246.391H173.375V243.677C173.375 242.124 173.345 241.023 173.286 240.374C173.247 239.647 173.119 239.116 172.903 238.782C172.706 238.448 172.343 238.172 171.812 237.956L171.9 237.219C172.667 237.278 173.561 237.307 174.584 237.307C175.587 237.307 176.471 237.278 177.238 237.219L177.327 237.956C176.737 238.212 176.334 238.507 176.117 238.841C175.921 239.155 175.813 239.667 175.793 240.374C175.754 242.105 175.734 243.206 175.734 243.677ZM182.908 250.018V252.23C182.908 253.37 182.928 254.353 182.967 255.179C183.006 255.828 183.114 256.29 183.291 256.565C183.468 256.84 183.812 257.086 184.324 257.302L184.235 257.981C182.662 257.843 181.089 257.843 179.516 257.981L179.428 257.302C179.959 257.086 180.303 256.85 180.46 256.595C180.617 256.339 180.716 255.877 180.755 255.208C180.814 254.599 180.844 253.606 180.844 252.23V251.581C180.844 250.362 180.814 249.438 180.755 248.809C180.716 248.219 180.598 247.816 180.401 247.6C180.224 247.383 179.861 247.226 179.31 247.128V246.509C180.588 245.879 181.63 245.191 182.436 244.444L183.055 244.68C183.036 245.604 183.006 246.518 182.967 247.423C182.947 248.327 182.928 248.976 182.908 249.369C182.908 249.743 182.908 249.959 182.908 250.018ZM181.876 239.608C181.404 239.608 181.011 239.45 180.696 239.136C180.382 238.821 180.224 238.428 180.224 237.956C180.224 237.484 180.382 237.091 180.696 236.776C181.011 236.462 181.404 236.305 181.876 236.305C182.348 236.305 182.741 236.462 183.055 236.776C183.37 237.091 183.527 237.484 183.527 237.956C183.527 238.428 183.37 238.821 183.055 239.136C182.741 239.45 182.348 239.608 181.876 239.608ZM194.165 247.01C193.988 247.01 193.674 246.921 193.222 246.745C192.789 246.568 192.494 246.479 192.337 246.479C191.609 246.479 191 246.882 190.508 247.688C190.037 248.494 189.801 249.576 189.801 250.932V252.318C189.801 253.4 189.82 254.353 189.86 255.179C189.899 255.828 190.027 256.3 190.243 256.595C190.479 256.889 190.902 257.125 191.511 257.302L191.423 257.981C190.754 257.922 189.869 257.892 188.768 257.892C187.864 257.892 187.078 257.922 186.409 257.981L186.321 257.302C186.832 257.086 187.166 256.84 187.323 256.565C187.5 256.29 187.608 255.828 187.648 255.179C187.707 254.55 187.736 253.596 187.736 252.318V251.581C187.736 250.362 187.707 249.438 187.648 248.809C187.608 248.219 187.49 247.816 187.294 247.6C187.117 247.383 186.753 247.226 186.203 247.128V246.509C187.481 245.879 188.523 245.191 189.329 244.444L189.948 244.68C189.85 245.447 189.791 246.4 189.771 247.541L189.801 247.57C190.194 246.607 190.705 245.86 191.334 245.329C191.963 244.778 192.632 244.503 193.34 244.503C193.91 244.503 194.362 244.641 194.696 244.916C195.05 245.191 195.227 245.545 195.227 245.978C195.227 246.666 194.873 247.01 194.165 247.01ZM199.199 250.018V252.23C199.199 253.37 199.219 254.353 199.258 255.179C199.297 255.828 199.405 256.29 199.582 256.565C199.759 256.84 200.103 257.086 200.614 257.302L200.526 257.981C198.953 257.843 197.38 257.843 195.807 257.981L195.719 257.302C196.25 257.086 196.594 256.85 196.751 256.595C196.908 256.339 197.007 255.877 197.046 255.208C197.105 254.599 197.134 253.606 197.134 252.23V251.581C197.134 250.362 197.105 249.438 197.046 248.809C197.007 248.219 196.889 247.816 196.692 247.6C196.515 247.383 196.151 247.226 195.601 247.128V246.509C196.879 245.879 197.921 245.191 198.727 244.444L199.346 244.68C199.327 245.604 199.297 246.518 199.258 247.423C199.238 248.327 199.219 248.976 199.199 249.369C199.199 249.743 199.199 249.959 199.199 250.018ZM198.167 239.608C197.695 239.608 197.302 239.45 196.987 239.136C196.672 238.821 196.515 238.428 196.515 237.956C196.515 237.484 196.672 237.091 196.987 236.776C197.302 236.462 197.695 236.305 198.167 236.305C198.639 236.305 199.032 236.462 199.346 236.776C199.661 237.091 199.818 237.484 199.818 237.956C199.818 238.428 199.661 238.821 199.346 239.136C199.032 239.45 198.639 239.608 198.167 239.608ZM214.025 248.927V252.318C214.025 253.4 214.044 254.353 214.084 255.179C214.123 255.828 214.231 256.29 214.408 256.565C214.585 256.84 214.929 257.086 215.44 257.302L215.352 257.981C213.779 257.843 212.206 257.843 210.633 257.981L210.545 257.302C211.056 257.086 211.39 256.84 211.547 256.565C211.724 256.29 211.832 255.828 211.872 255.179C211.931 254.55 211.96 253.596 211.96 252.318V249.192C211.96 248.367 211.724 247.698 211.252 247.187C210.8 246.676 210.181 246.42 209.395 246.42C208.392 246.42 207.586 246.725 206.976 247.334C206.386 247.944 206.092 248.73 206.092 249.694V252.318C206.092 253.4 206.111 254.353 206.151 255.179C206.19 255.828 206.298 256.29 206.475 256.565C206.652 256.84 206.996 257.086 207.507 257.302L207.419 257.981C205.846 257.843 204.273 257.843 202.7 257.981L202.612 257.302C203.123 257.086 203.457 256.84 203.614 256.565C203.791 256.29 203.899 255.828 203.939 255.179C203.998 254.55 204.027 253.596 204.027 252.318V251.581C204.027 250.362 203.998 249.438 203.939 248.809C203.899 248.219 203.781 247.816 203.585 247.6C203.408 247.383 203.044 247.226 202.494 247.128V246.509C203.772 245.879 204.814 245.191 205.62 244.444L206.239 244.68C206.16 245.663 206.101 246.489 206.062 247.157L206.092 247.187C207.035 245.398 208.353 244.503 210.043 244.503C211.538 244.503 212.658 245.113 213.405 246.332C213.818 247.079 214.025 247.944 214.025 248.927ZM229.517 245.565L229.281 246.656H226.509C227.158 247.383 227.482 248.347 227.482 249.546C227.482 250.962 227.02 252.151 226.096 253.115C225.172 254.039 224.061 254.501 222.763 254.501C221.525 254.501 220.473 254.137 219.608 253.41C218.861 253.98 218.487 254.668 218.487 255.474C218.487 256.398 219.156 256.889 220.493 256.948L224.061 257.066C225.418 257.106 226.46 257.489 227.187 258.217C227.934 258.944 228.308 259.898 228.308 261.077C228.308 262.453 227.679 263.623 226.42 264.587C225.162 265.57 223.55 266.061 221.584 266.061C219.991 266.061 218.753 265.747 217.868 265.118C217.003 264.488 216.57 263.643 216.57 262.581C216.57 261.264 217.357 260.055 218.93 258.954C217.514 258.443 216.806 257.509 216.806 256.152C216.806 254.874 217.485 253.714 218.841 252.672C218.173 251.768 217.838 250.726 217.838 249.546C217.838 248.19 218.31 247.02 219.254 246.037C220.198 245.073 221.328 244.592 222.646 244.592C223.255 244.592 223.894 244.69 224.562 244.887C225.27 245.083 225.909 245.181 226.479 245.181C227.541 245.181 228.475 245.142 229.281 245.064L229.517 245.565ZM226.686 261.579C226.686 260.065 225.634 259.308 223.53 259.308C221.918 259.308 220.719 259.278 219.932 259.219C218.969 260.124 218.487 261.077 218.487 262.08C218.487 262.788 218.792 263.348 219.401 263.761C220.011 264.193 220.896 264.41 222.056 264.41C223.57 264.41 224.72 264.144 225.506 263.613C226.293 263.083 226.686 262.404 226.686 261.579ZM222.587 245.771C221.82 245.771 221.21 246.076 220.758 246.686C220.326 247.295 220.109 248.19 220.109 249.369C220.109 250.647 220.335 251.63 220.788 252.318C221.259 252.987 221.918 253.321 222.763 253.321C224.415 253.321 225.241 252.112 225.241 249.694C225.241 248.475 224.995 247.521 224.503 246.833C224.032 246.125 223.393 245.771 222.587 245.771Z" fill="#303030"/>
<path d="M189.479 284.279H182.294V283.237L185.226 280.259C185.771 279.709 186.229 279.219 186.599 278.789C186.974 278.359 187.259 277.937 187.454 277.522C187.649 277.102 187.746 276.642 187.746 276.142C187.746 275.522 187.561 275.049 187.191 274.724C186.826 274.394 186.344 274.229 185.744 274.229C185.219 274.229 184.754 274.319 184.349 274.499C183.944 274.679 183.529 274.934 183.104 275.264L182.436 274.424C182.726 274.179 183.041 273.962 183.381 273.772C183.726 273.582 184.094 273.432 184.484 273.322C184.879 273.212 185.299 273.157 185.744 273.157C186.419 273.157 187.001 273.274 187.491 273.509C187.981 273.744 188.359 274.079 188.624 274.514C188.894 274.949 189.029 275.467 189.029 276.067C189.029 276.647 188.914 277.187 188.684 277.687C188.454 278.182 188.131 278.674 187.716 279.164C187.301 279.649 186.816 280.164 186.261 280.709L183.876 283.087V283.139H189.479V284.279ZM197.899 278.782C197.899 279.672 197.831 280.467 197.696 281.167C197.561 281.867 197.349 282.459 197.059 282.944C196.769 283.429 196.394 283.799 195.934 284.054C195.474 284.304 194.921 284.429 194.276 284.429C193.461 284.429 192.786 284.207 192.251 283.762C191.721 283.317 191.324 282.674 191.059 281.834C190.799 280.989 190.669 279.972 190.669 278.782C190.669 277.612 190.786 276.607 191.021 275.767C191.261 274.922 191.646 274.274 192.176 273.824C192.706 273.369 193.406 273.142 194.276 273.142C195.101 273.142 195.781 273.367 196.316 273.817C196.851 274.262 197.249 274.907 197.509 275.752C197.769 276.592 197.899 277.602 197.899 278.782ZM191.921 278.782C191.921 279.802 191.999 280.652 192.154 281.332C192.309 282.012 192.559 282.522 192.904 282.862C193.254 283.197 193.711 283.364 194.276 283.364C194.841 283.364 195.296 283.197 195.641 282.862C195.991 282.527 196.244 282.019 196.399 281.339C196.559 280.659 196.639 279.807 196.639 278.782C196.639 277.777 196.561 276.937 196.406 276.262C196.251 275.582 196.001 275.072 195.656 274.732C195.311 274.387 194.851 274.214 194.276 274.214C193.701 274.214 193.241 274.387 192.896 274.732C192.551 275.072 192.301 275.582 192.146 276.262C191.996 276.937 191.921 277.777 191.921 278.782Z" fill="#303030"/>
<g filter="url(#filter6_f_4839_19602)">
<circle cx="549.066" cy="255.095" r="37.6013" fill="#4593FF"/>
</g>
<g filter="url(#filter7_d_4839_19602)">
<circle cx="548.912" cy="255.249" r="34.56" fill="white"/>
</g>
<line x1="586.891" y1="255.288" x2="623.371" y2="255.288" stroke="black" stroke-opacity="0.2" stroke-width="0.384" stroke-linecap="round"/>
<g filter="url(#filter8_f_4839_19602)">
<circle cx="630.457" cy="200.553" r="18.8006" fill="#9598FF"/>
</g>
<g filter="url(#filter9_f_4839_19602)">
<circle cx="641.594" cy="256.232" r="18.8006" fill="#FBB2E0"/>
</g>
<g filter="url(#filter10_f_4839_19602)">
<circle cx="636.984" cy="308.457" r="18.8006" fill="#79BCF8"/>
</g>
<line x1="581.707" y1="237.469" x2="613.615" y2="205.561" stroke="black" stroke-opacity="0.2" stroke-width="0.384" stroke-linecap="round"/>
<line x1="0.192" y1="-0.192" x2="45.3165" y2="-0.192" transform="matrix(0.707107 0.707107 0.707107 -0.707107 582.473 271.607)" stroke="black" stroke-opacity="0.2" stroke-width="0.384" stroke-linecap="round"/>
<circle cx="630.474" cy="200.952" r="14.208" fill="white"/>
<path d="M541.58 248.592V252.514C541.58 252.75 541.59 253.3 541.609 254.165C541.619 254.519 541.673 254.78 541.772 254.947C541.88 255.104 542.081 255.247 542.376 255.375L542.332 255.743C541.949 255.714 541.506 255.699 541.005 255.699C540.494 255.699 540.046 255.714 539.663 255.743L539.619 255.375C539.884 255.266 540.066 255.129 540.164 254.962C540.263 254.795 540.327 254.529 540.356 254.165C540.386 253.841 540.4 253.291 540.4 252.514V250.612H534.856V252.514C534.856 252.75 534.866 253.3 534.885 254.165C534.895 254.519 534.949 254.78 535.048 254.947C535.156 255.104 535.357 255.247 535.652 255.375L535.608 255.743C535.225 255.714 534.782 255.699 534.281 255.699C533.77 255.699 533.322 255.714 532.939 255.743L532.895 255.375C533.16 255.266 533.342 255.129 533.44 254.962C533.548 254.795 533.612 254.529 533.632 254.165C533.662 253.841 533.676 253.291 533.676 252.514V248.592C533.676 247.815 533.662 247.265 533.632 246.94C533.612 246.576 533.548 246.311 533.44 246.144C533.342 245.977 533.16 245.839 532.895 245.731L532.939 245.362C533.322 245.392 533.77 245.407 534.281 245.407C534.782 245.407 535.225 245.392 535.608 245.362L535.652 245.731C535.347 245.859 535.141 246.006 535.033 246.173C534.935 246.34 534.885 246.596 534.885 246.94C534.885 247.225 534.88 247.496 534.871 247.751C534.861 248.007 534.856 248.287 534.856 248.592V249.948H540.4V248.592C540.4 247.815 540.386 247.265 540.356 246.94C540.336 246.576 540.272 246.311 540.164 246.144C540.066 245.977 539.884 245.839 539.619 245.731L539.663 245.362C540.046 245.392 540.494 245.407 541.005 245.407C541.506 245.407 541.949 245.392 542.332 245.362L542.376 245.731C542.081 245.859 541.88 246.006 541.772 246.173C541.673 246.331 541.619 246.586 541.609 246.94C541.59 247.805 541.58 248.356 541.58 248.592ZM545.167 251.762V252.868C545.167 253.438 545.177 253.93 545.196 254.342C545.216 254.667 545.27 254.898 545.359 255.035C545.447 255.173 545.619 255.296 545.875 255.404L545.83 255.743C545.044 255.674 544.258 255.674 543.471 255.743L543.427 255.404C543.692 255.296 543.864 255.178 543.943 255.05C544.022 254.922 544.071 254.691 544.09 254.357C544.12 254.052 544.135 253.556 544.135 252.868V252.543C544.135 251.934 544.12 251.472 544.09 251.157C544.071 250.862 544.012 250.661 543.914 250.553C543.825 250.445 543.643 250.366 543.368 250.317V250.007C544.007 249.693 544.528 249.349 544.931 248.975L545.241 249.093C545.231 249.555 545.216 250.012 545.196 250.464C545.187 250.917 545.177 251.241 545.167 251.438C545.167 251.624 545.167 251.732 545.167 251.762ZM544.651 246.557C544.415 246.557 544.218 246.478 544.061 246.321C543.904 246.164 543.825 245.967 543.825 245.731C543.825 245.495 543.904 245.298 544.061 245.141C544.218 244.984 544.415 244.905 544.651 244.905C544.887 244.905 545.083 244.984 545.241 245.141C545.398 245.298 545.477 245.495 545.477 245.731C545.477 245.967 545.398 246.164 545.241 246.321C545.083 246.478 544.887 246.557 544.651 246.557ZM550.796 250.258C550.707 250.258 550.55 250.214 550.324 250.125C550.107 250.037 549.96 249.992 549.881 249.992C549.518 249.992 549.213 250.194 548.967 250.597C548.731 251 548.613 251.541 548.613 252.219V252.912C548.613 253.453 548.623 253.93 548.643 254.342C548.662 254.667 548.726 254.903 548.834 255.05C548.952 255.198 549.164 255.316 549.468 255.404L549.424 255.743C549.09 255.714 548.648 255.699 548.097 255.699C547.645 255.699 547.252 255.714 546.917 255.743L546.873 255.404C547.129 255.296 547.296 255.173 547.375 255.035C547.463 254.898 547.517 254.667 547.537 254.342C547.566 254.028 547.581 253.551 547.581 252.912V252.543C547.581 251.934 547.566 251.472 547.537 251.157C547.517 250.862 547.458 250.661 547.36 250.553C547.271 250.445 547.089 250.366 546.814 250.317V250.007C547.453 249.693 547.974 249.349 548.377 248.975L548.687 249.093C548.638 249.476 548.608 249.953 548.598 250.523L548.613 250.538C548.81 250.056 549.065 249.683 549.38 249.417C549.695 249.142 550.029 249.005 550.383 249.005C550.668 249.005 550.894 249.073 551.061 249.211C551.238 249.349 551.326 249.526 551.326 249.742C551.326 250.086 551.149 250.258 550.796 250.258ZM553.312 251.762V252.868C553.312 253.438 553.322 253.93 553.342 254.342C553.361 254.667 553.416 254.898 553.504 255.035C553.592 255.173 553.765 255.296 554.02 255.404L553.976 255.743C553.189 255.674 552.403 255.674 551.617 255.743L551.572 255.404C551.838 255.296 552.01 255.178 552.088 255.05C552.167 254.922 552.216 254.691 552.236 254.357C552.265 254.052 552.28 253.556 552.28 252.868V252.543C552.28 251.934 552.265 251.472 552.236 251.157C552.216 250.862 552.157 250.661 552.059 250.553C551.97 250.445 551.789 250.366 551.513 250.317V250.007C552.152 249.693 552.673 249.349 553.076 248.975L553.386 249.093C553.376 249.555 553.361 250.012 553.342 250.464C553.332 250.917 553.322 251.241 553.312 251.438C553.312 251.624 553.312 251.732 553.312 251.762ZM552.796 246.557C552.56 246.557 552.364 246.478 552.206 246.321C552.049 246.164 551.97 245.967 551.97 245.731C551.97 245.495 552.049 245.298 552.206 245.141C552.364 244.984 552.56 244.905 552.796 244.905C553.032 244.905 553.229 244.984 553.386 245.141C553.543 245.298 553.622 245.495 553.622 245.731C553.622 245.967 553.543 246.164 553.386 246.321C553.229 246.478 553.032 246.557 552.796 246.557ZM560.725 251.216V252.912C560.725 253.453 560.735 253.93 560.755 254.342C560.774 254.667 560.828 254.898 560.917 255.035C561.005 255.173 561.177 255.296 561.433 255.404L561.389 255.743C560.602 255.674 559.816 255.674 559.029 255.743L558.985 255.404C559.241 255.296 559.408 255.173 559.487 255.035C559.575 254.898 559.629 254.667 559.649 254.342C559.678 254.028 559.693 253.551 559.693 252.912V251.349C559.693 250.936 559.575 250.602 559.339 250.346C559.113 250.091 558.803 249.963 558.41 249.963C557.909 249.963 557.506 250.115 557.201 250.42C556.906 250.725 556.759 251.118 556.759 251.6V252.912C556.759 253.453 556.768 253.93 556.788 254.342C556.808 254.667 556.862 254.898 556.95 255.035C557.039 255.173 557.211 255.296 557.466 255.404L557.422 255.743C556.636 255.674 555.849 255.674 555.063 255.743L555.019 255.404C555.274 255.296 555.441 255.173 555.52 255.035C555.608 254.898 555.663 254.667 555.682 254.342C555.712 254.028 555.726 253.551 555.726 252.912V252.543C555.726 251.934 555.712 251.472 555.682 251.157C555.663 250.862 555.604 250.661 555.505 250.553C555.417 250.445 555.235 250.366 554.96 250.317V250.007C555.599 249.693 556.12 249.349 556.523 248.975L556.832 249.093C556.793 249.585 556.764 249.997 556.744 250.332L556.759 250.346C557.231 249.452 557.889 249.005 558.735 249.005C559.482 249.005 560.042 249.309 560.416 249.919C560.622 250.292 560.725 250.725 560.725 251.216ZM568.471 249.535L568.353 250.081H566.967C567.292 250.445 567.454 250.926 567.454 251.526C567.454 252.234 567.223 252.829 566.761 253.31C566.299 253.772 565.743 254.003 565.095 254.003C564.475 254.003 563.949 253.821 563.517 253.458C563.143 253.743 562.957 254.087 562.957 254.49C562.957 254.952 563.291 255.198 563.959 255.227L565.743 255.286C566.422 255.306 566.943 255.498 567.306 255.861C567.68 256.225 567.867 256.702 567.867 257.292C567.867 257.98 567.552 258.565 566.923 259.046C566.294 259.538 565.488 259.784 564.505 259.784C563.709 259.784 563.089 259.626 562.647 259.312C562.214 258.997 561.998 258.574 561.998 258.044C561.998 257.385 562.391 256.78 563.178 256.23C562.47 255.974 562.116 255.507 562.116 254.829C562.116 254.19 562.455 253.61 563.133 253.089C562.799 252.637 562.632 252.116 562.632 251.526C562.632 250.848 562.868 250.263 563.34 249.771C563.812 249.29 564.377 249.049 565.036 249.049C565.34 249.049 565.66 249.098 565.994 249.196C566.348 249.295 566.668 249.344 566.953 249.344C567.483 249.344 567.95 249.324 568.353 249.285L568.471 249.535ZM567.056 257.542C567.056 256.785 566.53 256.407 565.478 256.407C564.672 256.407 564.072 256.392 563.679 256.363C563.197 256.815 562.957 257.292 562.957 257.793C562.957 258.147 563.109 258.427 563.414 258.633C563.718 258.85 564.161 258.958 564.741 258.958C565.498 258.958 566.073 258.825 566.466 258.56C566.859 258.294 567.056 257.955 567.056 257.542ZM565.006 249.639C564.623 249.639 564.318 249.791 564.092 250.096C563.876 250.4 563.768 250.848 563.768 251.438C563.768 252.077 563.881 252.568 564.107 252.912C564.343 253.246 564.672 253.413 565.095 253.413C565.92 253.413 566.333 252.809 566.333 251.6C566.333 250.99 566.21 250.513 565.965 250.169C565.729 249.816 565.409 249.639 565.006 249.639Z" fill="#303030"/>
<path d="M548.204 269.393H544.612V268.871L546.078 267.383C546.35 267.108 546.579 266.863 546.764 266.648C546.952 266.433 547.094 266.221 547.192 266.014C547.289 265.804 547.338 265.574 547.338 265.324C547.338 265.014 547.245 264.778 547.06 264.615C546.878 264.45 546.637 264.368 546.337 264.368C546.074 264.368 545.842 264.413 545.639 264.503C545.437 264.593 545.229 264.72 545.017 264.885L544.683 264.465C544.828 264.343 544.985 264.234 545.155 264.139C545.328 264.044 545.512 263.969 545.707 263.914C545.904 263.859 546.114 263.831 546.337 263.831C546.674 263.831 546.965 263.89 547.21 264.008C547.455 264.125 547.644 264.293 547.777 264.51C547.912 264.728 547.979 264.986 547.979 265.286C547.979 265.576 547.922 265.846 547.807 266.096C547.692 266.344 547.53 266.59 547.323 266.835C547.115 267.078 546.873 267.335 546.595 267.608L545.403 268.796V268.823H548.204V269.393ZM552.414 266.644C552.414 267.089 552.38 267.486 552.313 267.836C552.245 268.186 552.139 268.483 551.994 268.725C551.849 268.968 551.662 269.153 551.432 269.28C551.202 269.405 550.925 269.468 550.603 269.468C550.195 269.468 549.858 269.356 549.59 269.134C549.325 268.911 549.127 268.59 548.994 268.17C548.864 267.748 548.799 267.239 548.799 266.644C548.799 266.059 548.858 265.556 548.975 265.136C549.095 264.714 549.288 264.39 549.553 264.165C549.818 263.938 550.168 263.824 550.603 263.824C551.015 263.824 551.355 263.936 551.623 264.161C551.89 264.384 552.089 264.706 552.219 265.129C552.349 265.549 552.414 266.054 552.414 266.644ZM549.425 266.644C549.425 267.154 549.464 267.579 549.542 267.919C549.619 268.259 549.744 268.514 549.917 268.684C550.092 268.851 550.32 268.935 550.603 268.935C550.885 268.935 551.113 268.851 551.285 268.684C551.46 268.516 551.587 268.263 551.664 267.923C551.744 267.583 551.784 267.156 551.784 266.644C551.784 266.141 551.745 265.721 551.668 265.384C551.59 265.044 551.465 264.789 551.293 264.619C551.12 264.446 550.89 264.36 550.603 264.36C550.315 264.36 550.085 264.446 549.913 264.619C549.74 264.789 549.615 265.044 549.538 265.384C549.463 265.721 549.425 266.141 549.425 266.644Z" fill="#303030"/>
<g filter="url(#filter11_f_4839_19602)">
<circle cx="256.601" cy="552.343" r="37.6013" fill="#4593FF"/>
</g>
<g filter="url(#filter12_d_4839_19602)">
<circle cx="256.447" cy="552.497" r="34.56" fill="white"/>
</g>
<g filter="url(#filter13_f_4839_19602)">
<circle cx="337.996" cy="497.801" r="18.8006" fill="#9598FF"/>
</g>
<g filter="url(#filter14_f_4839_19602)">
<circle cx="349.129" cy="553.48" r="18.8006" fill="#FBB2E0"/>
</g>
<line x1="289.242" y1="534.717" x2="321.15" y2="502.809" stroke="black" stroke-opacity="0.2" stroke-width="0.384" stroke-linecap="round"/>
<circle cx="338.009" cy="498.2" r="14.208" fill="white"/>
<circle cx="347.61" cy="550.808" r="14.208" fill="white"/>
<path d="M334.129 494.851V496.264C334.129 496.747 333.981 497.144 333.687 497.456C333.392 497.767 333.007 497.923 332.531 497.923C332.04 497.923 331.655 497.785 331.376 497.511C331.102 497.236 330.965 496.851 330.965 496.356V494.851C330.965 494.527 330.959 494.298 330.946 494.162C330.938 494.011 330.912 493.9 330.866 493.831C330.826 493.761 330.75 493.704 330.639 493.659L330.658 493.505C330.817 493.517 331.004 493.523 331.217 493.523C331.426 493.523 331.61 493.517 331.77 493.505L331.788 493.659C331.665 493.712 331.583 493.773 331.542 493.843C331.501 493.908 331.479 494.015 331.475 494.162C331.462 494.568 331.456 494.797 331.456 494.851V496.344C331.456 496.737 331.555 497.042 331.751 497.259C331.948 497.476 332.22 497.585 332.568 497.585C332.949 497.585 333.25 497.462 333.472 497.216C333.693 496.97 333.803 496.626 333.803 496.184V494.851C333.803 494.527 333.797 494.298 333.785 494.162C333.773 494.011 333.744 493.902 333.699 493.837C333.654 493.767 333.572 493.708 333.453 493.659L333.472 493.505C333.66 493.517 333.826 493.523 333.969 493.523C334.162 493.523 334.323 493.517 334.455 493.505L334.473 493.659C334.354 493.708 334.272 493.765 334.227 493.831C334.186 493.896 334.16 494.007 334.147 494.162C334.135 494.298 334.129 494.527 334.129 494.851ZM336.418 495.545C336.381 495.545 336.316 495.526 336.221 495.489C336.131 495.453 336.07 495.434 336.037 495.434C335.886 495.434 335.759 495.518 335.656 495.686C335.558 495.854 335.509 496.079 335.509 496.362V496.651C335.509 496.876 335.513 497.075 335.521 497.247C335.529 497.382 335.556 497.48 335.601 497.542C335.65 497.603 335.738 497.652 335.865 497.689L335.847 497.83C335.707 497.818 335.523 497.812 335.294 497.812C335.105 497.812 334.941 497.818 334.802 497.83L334.784 497.689C334.89 497.644 334.96 497.593 334.993 497.535C335.029 497.478 335.052 497.382 335.06 497.247C335.072 497.116 335.079 496.917 335.079 496.651V496.497C335.079 496.243 335.072 496.051 335.06 495.92C335.052 495.797 335.027 495.713 334.986 495.668C334.95 495.623 334.874 495.59 334.759 495.569V495.44C335.025 495.309 335.242 495.166 335.41 495.01L335.539 495.059C335.519 495.219 335.507 495.418 335.503 495.655L335.509 495.662C335.591 495.461 335.697 495.305 335.828 495.195C335.959 495.08 336.099 495.023 336.246 495.023C336.365 495.023 336.459 495.051 336.529 495.109C336.602 495.166 336.639 495.24 336.639 495.33C336.639 495.473 336.565 495.545 336.418 495.545ZM339.213 495.244L339.164 495.471H338.586C338.721 495.623 338.789 495.823 338.789 496.073C338.789 496.368 338.693 496.616 338.5 496.817C338.308 497.009 338.076 497.105 337.806 497.105C337.548 497.105 337.329 497.03 337.149 496.878C336.993 496.997 336.915 497.14 336.915 497.308C336.915 497.501 337.054 497.603 337.333 497.615L338.076 497.64C338.359 497.648 338.576 497.728 338.728 497.88C338.883 498.031 338.961 498.23 338.961 498.475C338.961 498.762 338.83 499.006 338.568 499.207C338.306 499.411 337.97 499.514 337.56 499.514C337.228 499.514 336.97 499.448 336.786 499.317C336.606 499.186 336.516 499.01 336.516 498.789C336.516 498.514 336.68 498.262 337.007 498.033C336.712 497.927 336.565 497.732 336.565 497.449C336.565 497.183 336.706 496.942 336.989 496.724C336.85 496.536 336.78 496.319 336.78 496.073C336.78 495.791 336.878 495.547 337.075 495.342C337.271 495.141 337.507 495.041 337.781 495.041C337.908 495.041 338.042 495.061 338.181 495.102C338.328 495.143 338.461 495.164 338.58 495.164C338.801 495.164 338.996 495.156 339.164 495.139L339.213 495.244ZM338.623 498.58C338.623 498.265 338.404 498.107 337.966 498.107C337.63 498.107 337.38 498.101 337.216 498.088C337.015 498.277 336.915 498.475 336.915 498.684C336.915 498.832 336.979 498.949 337.106 499.035C337.233 499.125 337.417 499.17 337.659 499.17C337.974 499.17 338.214 499.114 338.377 499.004C338.541 498.893 338.623 498.752 338.623 498.58ZM337.769 495.287C337.609 495.287 337.482 495.35 337.388 495.477C337.298 495.604 337.253 495.791 337.253 496.036C337.253 496.303 337.3 496.507 337.394 496.651C337.493 496.79 337.63 496.86 337.806 496.86C338.15 496.86 338.322 496.608 338.322 496.104C338.322 495.85 338.271 495.651 338.169 495.508C338.07 495.36 337.937 495.287 337.769 495.287ZM339.225 496.522C339.225 496.096 339.355 495.739 339.613 495.453C339.871 495.166 340.19 495.023 340.571 495.023C340.866 495.023 341.112 495.121 341.308 495.317C341.509 495.506 341.609 495.75 341.609 496.049C341.609 496.102 341.605 496.149 341.597 496.19H339.705C339.697 496.255 339.692 496.333 339.692 496.423C339.692 496.735 339.774 496.991 339.938 497.191C340.102 497.388 340.311 497.486 340.565 497.486C340.761 497.486 340.925 497.449 341.056 497.376C341.192 497.298 341.323 497.169 341.45 496.989L341.597 497.081C341.495 497.339 341.349 497.544 341.161 497.695C340.972 497.847 340.753 497.923 340.503 497.923C340.127 497.923 339.819 497.785 339.582 497.511C339.344 497.236 339.225 496.907 339.225 496.522ZM339.748 495.944H341.069C341.065 495.748 341.003 495.592 340.884 495.477C340.77 495.358 340.62 495.299 340.436 495.299C340.26 495.299 340.11 495.358 339.987 495.477C339.864 495.596 339.785 495.752 339.748 495.944ZM344.391 495.944V496.651C344.391 496.876 344.395 497.075 344.404 497.247C344.412 497.382 344.434 497.478 344.471 497.535C344.508 497.593 344.58 497.644 344.686 497.689L344.668 497.83C344.34 497.802 344.012 497.802 343.685 497.83L343.666 497.689C343.773 497.644 343.842 497.593 343.875 497.535C343.912 497.478 343.935 497.382 343.943 497.247C343.955 497.116 343.961 496.917 343.961 496.651V495.999C343.961 495.827 343.912 495.688 343.814 495.582C343.72 495.475 343.591 495.422 343.427 495.422C343.218 495.422 343.05 495.485 342.923 495.612C342.8 495.739 342.739 495.903 342.739 496.104V496.651C342.739 496.876 342.743 497.075 342.751 497.247C342.759 497.382 342.782 497.478 342.818 497.535C342.855 497.593 342.927 497.644 343.034 497.689L343.015 497.83C342.687 497.802 342.36 497.802 342.032 497.83L342.014 497.689C342.12 497.644 342.19 497.593 342.223 497.535C342.259 497.478 342.282 497.382 342.29 497.247C342.302 497.116 342.309 496.917 342.309 496.651V496.497C342.309 496.243 342.302 496.051 342.29 495.92C342.282 495.797 342.257 495.713 342.216 495.668C342.179 495.623 342.104 495.59 341.989 495.569V495.44C342.255 495.309 342.472 495.166 342.64 495.01L342.769 495.059C342.753 495.264 342.741 495.436 342.732 495.576L342.739 495.582C342.935 495.209 343.21 495.023 343.562 495.023C343.873 495.023 344.107 495.15 344.262 495.403C344.348 495.559 344.391 495.739 344.391 495.944ZM344.916 495.385L344.897 495.256C345.04 495.15 345.157 495.043 345.247 494.937C345.342 494.83 345.438 494.693 345.536 494.525L345.69 494.562C345.681 494.66 345.665 494.861 345.641 495.164C345.878 495.16 346.093 495.152 346.286 495.139L346.335 495.244L346.286 495.471H345.628V496.915C345.628 497.181 345.661 497.359 345.727 497.449C345.78 497.515 345.858 497.548 345.96 497.548C346.071 497.548 346.177 497.497 346.28 497.394L346.384 497.572C346.347 497.667 346.277 497.746 346.175 497.812C346.077 497.877 345.966 497.91 345.843 497.91C345.647 497.91 345.489 497.839 345.37 497.695C345.26 497.56 345.204 497.325 345.204 496.989V495.741C345.204 495.619 345.186 495.535 345.149 495.489C345.116 495.444 345.038 495.41 344.916 495.385Z" fill="#303030"/>
<path d="M336.43 504.889H336.066V502.558C336.066 502.469 336.066 502.393 336.066 502.33C336.067 502.266 336.069 502.207 336.07 502.155C336.073 502.101 336.077 502.046 336.081 501.991C336.035 502.039 335.991 502.08 335.951 502.114C335.91 502.147 335.86 502.189 335.8 502.238L335.424 502.54L335.229 502.285L336.12 501.599H336.43V504.889ZM339.703 504.889H337.548V504.576L338.427 503.683C338.591 503.518 338.728 503.371 338.839 503.242C338.952 503.113 339.037 502.986 339.096 502.861C339.154 502.735 339.183 502.597 339.183 502.447C339.183 502.261 339.128 502.12 339.017 502.022C338.907 501.923 338.763 501.874 338.583 501.874C338.425 501.874 338.286 501.901 338.164 501.955C338.043 502.009 337.918 502.085 337.791 502.184L337.59 501.932C337.677 501.859 337.772 501.793 337.874 501.736C337.977 501.679 338.088 501.634 338.205 501.601C338.323 501.568 338.449 501.552 338.583 501.552C338.785 501.552 338.96 501.587 339.107 501.658C339.254 501.728 339.367 501.829 339.447 501.959C339.528 502.09 339.568 502.245 339.568 502.425C339.568 502.599 339.534 502.761 339.465 502.911C339.396 503.059 339.299 503.207 339.174 503.354C339.05 503.5 338.904 503.654 338.738 503.818L338.022 504.531V504.547H339.703V504.889Z" fill="#303030"/>
<path d="M249.115 545.84V549.762C249.115 549.998 249.125 550.548 249.145 551.414C249.154 551.767 249.208 552.028 249.307 552.195C249.415 552.352 249.616 552.495 249.911 552.623L249.867 552.991C249.484 552.962 249.041 552.947 248.54 552.947C248.029 552.947 247.582 552.962 247.198 552.991L247.154 552.623C247.419 552.515 247.601 552.377 247.699 552.21C247.798 552.043 247.862 551.777 247.891 551.414C247.921 551.089 247.935 550.539 247.935 549.762V547.86H242.391V549.762C242.391 549.998 242.401 550.548 242.421 551.414C242.43 551.767 242.484 552.028 242.583 552.195C242.691 552.352 242.892 552.495 243.187 552.623L243.143 552.991C242.76 552.962 242.317 552.947 241.816 552.947C241.305 552.947 240.858 552.962 240.474 552.991L240.43 552.623C240.695 552.515 240.877 552.377 240.975 552.21C241.084 552.043 241.148 551.777 241.167 551.414C241.197 551.089 241.211 550.539 241.211 549.762V545.84C241.211 545.063 241.197 544.513 241.167 544.188C241.148 543.824 241.084 543.559 240.975 543.392C240.877 543.225 240.695 543.087 240.43 542.979L240.474 542.61C240.858 542.64 241.305 542.655 241.816 542.655C242.317 542.655 242.76 542.64 243.143 542.61L243.187 542.979C242.883 543.107 242.676 543.254 242.568 543.421C242.47 543.589 242.421 543.844 242.421 544.188C242.421 544.473 242.416 544.744 242.406 544.999C242.396 545.255 242.391 545.535 242.391 545.84V547.196H247.935V545.84C247.935 545.063 247.921 544.513 247.891 544.188C247.872 543.824 247.808 543.559 247.699 543.392C247.601 543.225 247.419 543.087 247.154 542.979L247.198 542.61C247.582 542.64 248.029 542.655 248.54 542.655C249.041 542.655 249.484 542.64 249.867 542.61L249.911 542.979C249.616 543.107 249.415 543.254 249.307 543.421C249.208 543.579 249.154 543.834 249.145 544.188C249.125 545.053 249.115 545.604 249.115 545.84ZM252.702 549.01V550.116C252.702 550.686 252.712 551.178 252.732 551.59C252.751 551.915 252.805 552.146 252.894 552.284C252.982 552.421 253.154 552.544 253.41 552.652L253.366 552.991C252.579 552.922 251.793 552.922 251.006 552.991L250.962 552.652C251.227 552.544 251.4 552.426 251.478 552.298C251.557 552.17 251.606 551.939 251.626 551.605C251.655 551.3 251.67 550.804 251.67 550.116V549.792C251.67 549.182 251.655 548.72 251.626 548.405C251.606 548.111 251.547 547.909 251.449 547.801C251.36 547.693 251.178 547.614 250.903 547.565V547.255C251.542 546.941 252.063 546.597 252.466 546.223L252.776 546.341C252.766 546.803 252.751 547.26 252.732 547.712C252.722 548.165 252.712 548.489 252.702 548.686C252.702 548.872 252.702 548.981 252.702 549.01ZM252.186 543.805C251.95 543.805 251.753 543.726 251.596 543.569C251.439 543.412 251.36 543.215 251.36 542.979C251.36 542.743 251.439 542.547 251.596 542.389C251.753 542.232 251.95 542.153 252.186 542.153C252.422 542.153 252.618 542.232 252.776 542.389C252.933 542.547 253.012 542.743 253.012 542.979C253.012 543.215 252.933 543.412 252.776 543.569C252.618 543.726 252.422 543.805 252.186 543.805ZM258.331 547.506C258.242 547.506 258.085 547.462 257.859 547.373C257.643 547.285 257.495 547.241 257.416 547.241C257.053 547.241 256.748 547.442 256.502 547.845C256.266 548.248 256.148 548.789 256.148 549.467V550.16C256.148 550.701 256.158 551.178 256.178 551.59C256.198 551.915 256.261 552.151 256.37 552.298C256.488 552.446 256.699 552.564 257.004 552.652L256.959 552.991C256.625 552.962 256.183 552.947 255.632 552.947C255.18 552.947 254.787 552.962 254.453 552.991L254.408 552.652C254.664 552.544 254.831 552.421 254.91 552.284C254.998 552.146 255.052 551.915 255.072 551.59C255.101 551.276 255.116 550.799 255.116 550.16V549.792C255.116 549.182 255.101 548.72 255.072 548.405C255.052 548.111 254.993 547.909 254.895 547.801C254.807 547.693 254.625 547.614 254.349 547.565V547.255C254.988 546.941 255.509 546.597 255.912 546.223L256.222 546.341C256.173 546.724 256.143 547.201 256.134 547.771L256.148 547.786C256.345 547.304 256.601 546.931 256.915 546.665C257.23 546.39 257.564 546.253 257.918 546.253C258.203 546.253 258.429 546.321 258.596 546.459C258.773 546.597 258.862 546.774 258.862 546.99C258.862 547.334 258.685 547.506 258.331 547.506ZM260.847 549.01V550.116C260.847 550.686 260.857 551.178 260.877 551.59C260.897 551.915 260.951 552.146 261.039 552.284C261.128 552.421 261.3 552.544 261.555 552.652L261.511 552.991C260.725 552.922 259.938 552.922 259.152 552.991L259.108 552.652C259.373 552.544 259.545 552.426 259.624 552.298C259.702 552.17 259.751 551.939 259.771 551.605C259.801 551.3 259.815 550.804 259.815 550.116V549.792C259.815 549.182 259.801 548.72 259.771 548.405C259.751 548.111 259.692 547.909 259.594 547.801C259.506 547.693 259.324 547.614 259.049 547.565V547.255C259.687 546.941 260.209 546.597 260.612 546.223L260.921 546.341C260.911 546.803 260.897 547.26 260.877 547.712C260.867 548.165 260.857 548.489 260.847 548.686C260.847 548.872 260.847 548.981 260.847 549.01ZM260.331 543.805C260.095 543.805 259.899 543.726 259.742 543.569C259.584 543.412 259.506 543.215 259.506 542.979C259.506 542.743 259.584 542.547 259.742 542.389C259.899 542.232 260.095 542.153 260.331 542.153C260.567 542.153 260.764 542.232 260.921 542.389C261.078 542.547 261.157 542.743 261.157 542.979C261.157 543.215 261.078 543.412 260.921 543.569C260.764 543.726 260.567 543.805 260.331 543.805ZM268.26 548.464V550.16C268.26 550.701 268.27 551.178 268.29 551.59C268.31 551.915 268.364 552.146 268.452 552.284C268.541 552.421 268.713 552.544 268.968 552.652L268.924 552.991C268.137 552.922 267.351 552.922 266.565 552.991L266.52 552.652C266.776 552.544 266.943 552.421 267.022 552.284C267.11 552.146 267.164 551.915 267.184 551.59C267.213 551.276 267.228 550.799 267.228 550.16V548.597C267.228 548.184 267.11 547.85 266.874 547.594C266.648 547.339 266.339 547.211 265.945 547.211C265.444 547.211 265.041 547.363 264.736 547.668C264.441 547.973 264.294 548.366 264.294 548.848V550.16C264.294 550.701 264.304 551.178 264.323 551.59C264.343 551.915 264.397 552.146 264.485 552.284C264.574 552.421 264.746 552.544 265.002 552.652L264.957 552.991C264.171 552.922 263.384 552.922 262.598 552.991L262.554 552.652C262.809 552.544 262.977 552.421 263.055 552.284C263.144 552.146 263.198 551.915 263.217 551.59C263.247 551.276 263.262 550.799 263.262 550.16V549.792C263.262 549.182 263.247 548.72 263.217 548.405C263.198 548.111 263.139 547.909 263.04 547.801C262.952 547.693 262.77 547.614 262.495 547.565V547.255C263.134 546.941 263.655 546.597 264.058 546.223L264.368 546.341C264.328 546.833 264.299 547.245 264.279 547.58L264.294 547.594C264.766 546.7 265.424 546.253 266.27 546.253C267.017 546.253 267.577 546.557 267.951 547.167C268.157 547.54 268.26 547.973 268.26 548.464ZM276.007 546.783L275.889 547.329H274.502C274.827 547.693 274.989 548.174 274.989 548.774C274.989 549.482 274.758 550.077 274.296 550.558C273.834 551.02 273.279 551.251 272.63 551.251C272.01 551.251 271.485 551.069 271.052 550.706C270.678 550.991 270.492 551.335 270.492 551.738C270.492 552.2 270.826 552.446 271.494 552.475L273.279 552.534C273.957 552.554 274.478 552.746 274.842 553.109C275.215 553.473 275.402 553.95 275.402 554.54C275.402 555.228 275.087 555.813 274.458 556.294C273.829 556.786 273.023 557.032 272.04 557.032C271.244 557.032 270.624 556.874 270.182 556.56C269.749 556.245 269.533 555.822 269.533 555.292C269.533 554.633 269.926 554.028 270.713 553.478C270.005 553.222 269.651 552.755 269.651 552.077C269.651 551.438 269.99 550.858 270.669 550.337C270.334 549.885 270.167 549.364 270.167 548.774C270.167 548.096 270.403 547.511 270.875 547.019C271.347 546.538 271.912 546.297 272.571 546.297C272.876 546.297 273.195 546.346 273.529 546.444C273.883 546.543 274.203 546.592 274.488 546.592C275.019 546.592 275.486 546.572 275.889 546.533L276.007 546.783ZM274.591 554.79C274.591 554.033 274.065 553.655 273.013 553.655C272.207 553.655 271.607 553.64 271.214 553.611C270.733 554.063 270.492 554.54 270.492 555.041C270.492 555.395 270.644 555.675 270.949 555.881C271.254 556.098 271.696 556.206 272.276 556.206C273.033 556.206 273.608 556.073 274.001 555.808C274.394 555.542 274.591 555.203 274.591 554.79ZM272.541 546.887C272.158 546.887 271.853 547.039 271.627 547.344C271.411 547.648 271.303 548.096 271.303 548.686C271.303 549.325 271.416 549.816 271.642 550.16C271.878 550.494 272.207 550.662 272.63 550.662C273.456 550.662 273.868 550.057 273.868 548.848C273.868 548.238 273.746 547.762 273.5 547.417C273.264 547.064 272.944 546.887 272.541 546.887Z" fill="#303030"/>
<g filter="url(#filter15_d_4839_19602)">
<circle cx="573.24" cy="48.3201" r="18.24" fill="#FFFEFE"/>
</g>
<mask id="mask0_4839_19602" style="mask-type:luminance" maskUnits="userSpaceOnUse" x="565" y="40" width="14" height="14">
<path fill-rule="evenodd" clip-rule="evenodd" d="M565.645 40.7207H578.671V53.7469H565.645V40.7207Z" fill="white"/>
</mask>
<g mask="url(#mask0_4839_19602)">
<path fill-rule="evenodd" clip-rule="evenodd" d="M572.16 41.7237C569.121 41.7237 566.649 44.1949 566.649 47.2333C566.649 50.2716 569.121 52.7435 572.16 52.7435C575.197 52.7435 577.669 50.2716 577.669 47.2333C577.669 44.1949 575.197 41.7237 572.16 41.7237ZM572.158 53.7469C568.567 53.7469 565.645 50.8249 565.645 47.2335C565.645 43.642 568.567 40.7207 572.158 40.7207C575.749 40.7207 578.671 43.642 578.671 47.2335C578.671 50.8249 575.749 53.7469 572.158 53.7469Z" fill="#858585"/>
</g>
<mask id="mask1_4839_19602" style="mask-type:luminance" maskUnits="userSpaceOnUse" x="575" y="51" width="5" height="4">
<path fill-rule="evenodd" clip-rule="evenodd" d="M575.832 51.2266H579.192V54.5804H575.832V51.2266Z" fill="white"/>
</mask>
<g mask="url(#mask1_4839_19602)">
<path fill-rule="evenodd" clip-rule="evenodd" d="M578.691 54.5804C578.563 54.5804 578.435 54.5316 578.336 54.434L575.979 52.0838C575.783 51.8878 575.783 51.5702 575.979 51.3742C576.174 51.1769 576.492 51.1782 576.688 51.3729L579.045 53.7237C579.241 53.9197 579.242 54.2367 579.046 54.4326C578.948 54.5316 578.819 54.5804 578.691 54.5804Z" fill="#858585"/>
</g>
<rect y="317" width="689" height="229" fill="url(#paint0_linear_4839_19602)"/>
<rect x="485" y="465" width="385" height="137" transform="rotate(-90 485 465)" fill="url(#paint1_linear_4839_19602)"/>
<g filter="url(#filter16_d_4839_19602)">
<rect x="423" y="474" width="111.744" height="38.016" rx="11.52" fill="white"/>
<rect x="423.576" y="474.576" width="110.592" height="36.864" rx="10.944" stroke="#E0E0E0" stroke-width="1.152"/>
</g>
<g clip-path="url(#clip1_4839_19602)">
<path d="M514.584 482.812H499.377C498.332 482.812 497.477 483.668 497.477 484.713V499.92C497.477 500.965 498.332 501.82 499.377 501.82H514.584C515.629 501.82 516.485 500.965 516.485 499.92V484.713C516.485 483.668 515.629 482.812 514.584 482.812ZM503.179 499.92H500.328C499.805 499.92 499.377 499.492 499.377 498.969V496.118H503.179V499.92ZM503.179 494.217H499.377V490.416H503.179V494.217ZM503.179 488.515H499.377V485.664C499.377 485.141 499.805 484.713 500.328 484.713H503.179V488.515ZM508.881 499.92H505.08V496.118H508.881V499.92ZM508.881 494.217H505.08V490.416H508.881V494.217ZM508.881 488.515H505.08V484.713H508.881V488.515ZM513.633 499.92H510.782V496.118H514.584V498.969C514.584 499.492 514.156 499.92 513.633 499.92ZM514.584 494.217H510.782V490.416H514.584V494.217ZM514.584 488.515H510.782V484.713H513.633C514.156 484.713 514.584 485.141 514.584 485.664V488.515Z" fill="#858585"/>
</g>
<line opacity="0.5" x1="477.431" y1="507.977" x2="477.431" y2="475.7" stroke="#858585" stroke-width="0.576"/>
<path d="M426.457 488.975C426.457 482.613 431.615 477.455 437.977 477.455H473.689V507.407H437.977C431.615 507.407 426.457 502.249 426.457 495.887V488.975Z" fill="#E8F3FA"/>
<path fill-rule="evenodd" clip-rule="evenodd" d="M442.734 494.514C444.555 494.514 446.031 495.99 446.031 497.81C446.031 499.631 444.555 501.107 442.734 501.107C440.913 501.107 439.438 499.631 439.438 497.81C439.438 495.99 440.914 494.514 442.734 494.514Z" stroke="#3D8EFE" stroke-width="1.728" stroke-linecap="round" stroke-linejoin="round"/>
<path fill-rule="evenodd" clip-rule="evenodd" d="M453.722 494.514C455.543 494.514 457.019 495.99 457.019 497.81C457.019 499.631 455.543 501.107 453.722 501.107C451.902 501.107 450.426 499.631 450.426 497.81C450.426 495.99 451.902 494.514 453.722 494.514Z" stroke="#3D8EFE" stroke-width="1.728" stroke-linecap="round" stroke-linejoin="round"/>
<path fill-rule="evenodd" clip-rule="evenodd" d="M448.23 483.525C450.051 483.525 451.527 485.001 451.527 486.822C451.527 488.643 450.051 490.119 448.23 490.119C446.409 490.119 444.934 488.643 444.934 486.822C444.934 485.002 446.41 483.525 448.23 483.525Z" stroke="#3D8EFE" stroke-width="1.728" stroke-linecap="round" stroke-linejoin="round"/>
<g filter="url(#filter17_d_4839_19602)">
<circle cx="572.439" cy="496.719" r="18.24" fill="#006BFF"/>
</g>
<path d="M573.922 502.471H578.552" stroke="white" stroke-width="0.9576" stroke-linecap="round" stroke-linejoin="round"/>
<path fill-rule="evenodd" clip-rule="evenodd" d="M573.302 491.843C573.797 491.252 574.687 491.165 575.292 491.65C575.325 491.676 576.398 492.51 576.398 492.51C577.062 492.911 577.268 493.764 576.858 494.415C576.836 494.45 570.769 502.038 570.769 502.038C570.567 502.29 570.261 502.439 569.933 502.442L567.61 502.472L567.086 500.256C567.013 499.944 567.086 499.617 567.288 499.365L573.302 491.843Z" stroke="white" stroke-width="0.9576" stroke-linecap="round" stroke-linejoin="round"/>
<path d="M572.184 493.252L575.664 495.925" stroke="white" stroke-width="0.9576" stroke-linecap="round" stroke-linejoin="round"/>
</g>
<defs>
<filter id="filter0_d_4839_19602" x="27.1172" y="24.0801" width="56.4805" height="56.4805" filterUnits="userSpaceOnUse" color-interpolation-filters="sRGB">
<feFlood flood-opacity="0" result="BackgroundImageFix"/>
<feColorMatrix in="SourceAlpha" type="matrix" values="0 0 0 0 0 0 0 0 0 0 0 0 0 0 0 0 0 0 127 0" result="hardAlpha"/>
<feOffset dy="4"/>
<feGaussianBlur stdDeviation="5"/>
<feComposite in2="hardAlpha" operator="out"/>
<feColorMatrix type="matrix" values="0 0 0 0 0.669231 0 0 0 0 0.669231 0 0 0 0 0.669231 0 0 0 0.25 0"/>
<feBlend mode="normal" in2="BackgroundImageFix" result="effect1_dropShadow_4839_19602"/>
<feBlend mode="normal" in="SourceGraphic" in2="effect1_dropShadow_4839_19602" result="shape"/>
</filter>
<filter id="filter1_f_4839_19602" x="60.704" y="125.19" width="260.998" height="260.996" filterUnits="userSpaceOnUse" color-interpolation-filters="sRGB">
<feFlood flood-opacity="0" result="BackgroundImageFix"/>
<feBlend mode="normal" in="SourceGraphic" in2="BackgroundImageFix" result="shape"/>
<feGaussianBlur stdDeviation="27.648" result="effect1_foregroundBlur_4839_19602"/>
</filter>
<filter id="filter2_d_4839_19602" x="119.316" y="186.875" width="143.153" height="143.155" filterUnits="userSpaceOnUse" color-interpolation-filters="sRGB">
<feFlood flood-opacity="0" result="BackgroundImageFix"/>
<feColorMatrix in="SourceAlpha" type="matrix" values="0 0 0 0 0 0 0 0 0 0 0 0 0 0 0 0 0 0 127 0" result="hardAlpha"/>
<feOffset dy="2.4576"/>
<feGaussianBlur stdDeviation="1.2288"/>
<feComposite in2="hardAlpha" operator="out"/>
<feColorMatrix type="matrix" values="0 0 0 0 1 0 0 0 0 0.841346 0 0 0 0 0.841346 0 0 0 0.25 0"/>
<feBlend mode="normal" in2="BackgroundImageFix" result="effect1_dropShadow_4839_19602"/>
<feBlend mode="normal" in="SourceGraphic" in2="effect1_dropShadow_4839_19602" result="shape"/>
</filter>
<filter id="filter3_f_4839_19602" x="285.667" y="78.28" width="136.643" height="136.643" filterUnits="userSpaceOnUse" color-interpolation-filters="sRGB">
<feFlood flood-opacity="0" result="BackgroundImageFix"/>
<feBlend mode="normal" in="SourceGraphic" in2="BackgroundImageFix" result="shape"/>
<feGaussianBlur stdDeviation="15.36" result="effect1_foregroundBlur_4839_19602"/>
</filter>
<filter id="filter4_f_4839_19602" x="307.94" y="189.639" width="136.643" height="136.643" filterUnits="userSpaceOnUse" color-interpolation-filters="sRGB">
<feFlood flood-opacity="0" result="BackgroundImageFix"/>
<feBlend mode="normal" in="SourceGraphic" in2="BackgroundImageFix" result="shape"/>
<feGaussianBlur stdDeviation="15.36" result="effect1_foregroundBlur_4839_19602"/>
</filter>
<filter id="filter5_f_4839_19602" x="298.725" y="294.089" width="136.643" height="136.643" filterUnits="userSpaceOnUse" color-interpolation-filters="sRGB">
<feFlood flood-opacity="0" result="BackgroundImageFix"/>
<feBlend mode="normal" in="SourceGraphic" in2="BackgroundImageFix" result="shape"/>
<feGaussianBlur stdDeviation="15.36" result="effect1_foregroundBlur_4839_19602"/>
</filter>
<filter id="filter6_f_4839_19602" x="483.817" y="189.846" width="130.499" height="130.499" filterUnits="userSpaceOnUse" color-interpolation-filters="sRGB">
<feFlood flood-opacity="0" result="BackgroundImageFix"/>
<feBlend mode="normal" in="SourceGraphic" in2="BackgroundImageFix" result="shape"/>
<feGaussianBlur stdDeviation="13.824" result="effect1_foregroundBlur_4839_19602"/>
</filter>
<filter id="filter7_d_4839_19602" x="513.123" y="220.689" width="71.5787" height="71.5767" filterUnits="userSpaceOnUse" color-interpolation-filters="sRGB">
<feFlood flood-opacity="0" result="BackgroundImageFix"/>
<feColorMatrix in="SourceAlpha" type="matrix" values="0 0 0 0 0 0 0 0 0 0 0 0 0 0 0 0 0 0 127 0" result="hardAlpha"/>
<feOffset dy="1.2288"/>
<feGaussianBlur stdDeviation="0.6144"/>
<feComposite in2="hardAlpha" operator="out"/>
<feColorMatrix type="matrix" values="0 0 0 0 1 0 0 0 0 0.841346 0 0 0 0 0.841346 0 0 0 0.25 0"/>
<feBlend mode="normal" in2="BackgroundImageFix" result="effect1_dropShadow_4839_19602"/>
<feBlend mode="normal" in="SourceGraphic" in2="effect1_dropShadow_4839_19602" result="shape"/>
</filter>
<filter id="filter8_f_4839_19602" x="596.296" y="166.392" width="68.3216" height="68.3216" filterUnits="userSpaceOnUse" color-interpolation-filters="sRGB">
<feFlood flood-opacity="0" result="BackgroundImageFix"/>
<feBlend mode="normal" in="SourceGraphic" in2="BackgroundImageFix" result="shape"/>
<feGaussianBlur stdDeviation="7.68" result="effect1_foregroundBlur_4839_19602"/>
</filter>
<filter id="filter9_f_4839_19602" x="607.433" y="222.072" width="68.3216" height="68.3216" filterUnits="userSpaceOnUse" color-interpolation-filters="sRGB">
<feFlood flood-opacity="0" result="BackgroundImageFix"/>
<feBlend mode="normal" in="SourceGraphic" in2="BackgroundImageFix" result="shape"/>
<feGaussianBlur stdDeviation="7.68" result="effect1_foregroundBlur_4839_19602"/>
</filter>
<filter id="filter10_f_4839_19602" x="602.824" y="274.296" width="68.3216" height="68.3216" filterUnits="userSpaceOnUse" color-interpolation-filters="sRGB">
<feFlood flood-opacity="0" result="BackgroundImageFix"/>
<feBlend mode="normal" in="SourceGraphic" in2="BackgroundImageFix" result="shape"/>
<feGaussianBlur stdDeviation="7.68" result="effect1_foregroundBlur_4839_19602"/>
</filter>
<filter id="filter11_f_4839_19602" x="191.352" y="487.094" width="130.499" height="130.499" filterUnits="userSpaceOnUse" color-interpolation-filters="sRGB">
<feFlood flood-opacity="0" result="BackgroundImageFix"/>
<feBlend mode="normal" in="SourceGraphic" in2="BackgroundImageFix" result="shape"/>
<feGaussianBlur stdDeviation="13.824" result="effect1_foregroundBlur_4839_19602"/>
</filter>
<filter id="filter12_d_4839_19602" x="220.658" y="517.938" width="71.5787" height="71.5767" filterUnits="userSpaceOnUse" color-interpolation-filters="sRGB">
<feFlood flood-opacity="0" result="BackgroundImageFix"/>
<feColorMatrix in="SourceAlpha" type="matrix" values="0 0 0 0 0 0 0 0 0 0 0 0 0 0 0 0 0 0 127 0" result="hardAlpha"/>
<feOffset dy="1.2288"/>
<feGaussianBlur stdDeviation="0.6144"/>
<feComposite in2="hardAlpha" operator="out"/>
<feColorMatrix type="matrix" values="0 0 0 0 1 0 0 0 0 0.841346 0 0 0 0 0.841346 0 0 0 0.25 0"/>
<feBlend mode="normal" in2="BackgroundImageFix" result="effect1_dropShadow_4839_19602"/>
<feBlend mode="normal" in="SourceGraphic" in2="effect1_dropShadow_4839_19602" result="shape"/>
</filter>
<filter id="filter13_f_4839_19602" x="303.835" y="463.64" width="68.3216" height="68.3216" filterUnits="userSpaceOnUse" color-interpolation-filters="sRGB">
<feFlood flood-opacity="0" result="BackgroundImageFix"/>
<feBlend mode="normal" in="SourceGraphic" in2="BackgroundImageFix" result="shape"/>
<feGaussianBlur stdDeviation="7.68" result="effect1_foregroundBlur_4839_19602"/>
</filter>
<filter id="filter14_f_4839_19602" x="314.968" y="519.32" width="68.3216" height="68.3216" filterUnits="userSpaceOnUse" color-interpolation-filters="sRGB">
<feFlood flood-opacity="0" result="BackgroundImageFix"/>
<feBlend mode="normal" in="SourceGraphic" in2="BackgroundImageFix" result="shape"/>
<feGaussianBlur stdDeviation="7.68" result="effect1_foregroundBlur_4839_19602"/>
</filter>
<filter id="filter15_d_4839_19602" x="545" y="24.0801" width="56.4805" height="56.4805" filterUnits="userSpaceOnUse" color-interpolation-filters="sRGB">
<feFlood flood-opacity="0" result="BackgroundImageFix"/>
<feColorMatrix in="SourceAlpha" type="matrix" values="0 0 0 0 0 0 0 0 0 0 0 0 0 0 0 0 0 0 127 0" result="hardAlpha"/>
<feOffset dy="4"/>
<feGaussianBlur stdDeviation="5"/>
<feComposite in2="hardAlpha" operator="out"/>
<feColorMatrix type="matrix" values="0 0 0 0 0.669231 0 0 0 0 0.669231 0 0 0 0 0.669231 0 0 0 0.25 0"/>
<feBlend mode="normal" in2="BackgroundImageFix" result="effect1_dropShadow_4839_19602"/>
<feBlend mode="normal" in="SourceGraphic" in2="effect1_dropShadow_4839_19602" result="shape"/>
</filter>
<filter id="filter16_d_4839_19602" x="413" y="468" width="131.742" height="58.0156" filterUnits="userSpaceOnUse" color-interpolation-filters="sRGB">
<feFlood flood-opacity="0" result="BackgroundImageFix"/>
<feColorMatrix in="SourceAlpha" type="matrix" values="0 0 0 0 0 0 0 0 0 0 0 0 0 0 0 0 0 0 127 0" result="hardAlpha"/>
<feOffset dy="4"/>
<feGaussianBlur stdDeviation="5"/>
<feComposite in2="hardAlpha" operator="out"/>
<feColorMatrix type="matrix" values="0 0 0 0 0.669231 0 0 0 0 0.669231 0 0 0 0 0.669231 0 0 0 0.25 0"/>
<feBlend mode="normal" in2="BackgroundImageFix" result="effect1_dropShadow_4839_19602"/>
<feBlend mode="normal" in="SourceGraphic" in2="effect1_dropShadow_4839_19602" result="shape"/>
</filter>
<filter id="filter17_d_4839_19602" x="544.199" y="472.479" width="56.4805" height="56.4805" filterUnits="userSpaceOnUse" color-interpolation-filters="sRGB">
<feFlood flood-opacity="0" result="BackgroundImageFix"/>
<feColorMatrix in="SourceAlpha" type="matrix" values="0 0 0 0 0 0 0 0 0 0 0 0 0 0 0 0 0 0 127 0" result="hardAlpha"/>
<feOffset dy="4"/>
<feGaussianBlur stdDeviation="5"/>
<feComposite in2="hardAlpha" operator="out"/>
<feColorMatrix type="matrix" values="0 0 0 0 0.669231 0 0 0 0 0.669231 0 0 0 0 0.669231 0 0 0 0.25 0"/>
<feBlend mode="normal" in2="BackgroundImageFix" result="effect1_dropShadow_4839_19602"/>
<feBlend mode="normal" in="SourceGraphic" in2="effect1_dropShadow_4839_19602" result="shape"/>
</filter>
<linearGradient id="paint0_linear_4839_19602" x1="344.5" y1="317" x2="344.5" y2="546" gradientUnits="userSpaceOnUse">
<stop stop-color="white" stop-opacity="0"/>
<stop offset="1" stop-color="#D3E1E9"/>
</linearGradient>
<linearGradient id="paint1_linear_4839_19602" x1="677.5" y1="465" x2="677.5" y2="602" gradientUnits="userSpaceOnUse">
<stop stop-color="white" stop-opacity="0"/>
<stop offset="1" stop-color="white"/>
</linearGradient>
<clipPath id="clip0_4839_19602">
<rect width="621" height="546" rx="36" fill="white"/>
</clipPath>
<clipPath id="clip1_4839_19602">
<rect width="22.8096" height="22.8096" fill="white" transform="translate(495.574 480.912)"/>
</clipPath>
</defs>
</svg>
