<svg width="34" height="34" viewBox="0 0 34 34" fill="none" xmlns="http://www.w3.org/2000/svg">
<g clip-path="url(#clip0_4232_14249)">
<path d="M22.913 10.9704C21.2716 9.32901 19.1251 8.50129 16.9647 8.50129V16.9188L11.0163 22.8671C14.2991 26.1499 19.6302 26.1499 22.927 22.8671C26.2098 19.5843 26.2098 14.2532 22.913 10.9704V10.9704ZM16.9647 2.88965C9.22059 2.88965 2.93555 9.17469 2.93555 16.9188C2.93555 24.6628 9.22059 30.9479 16.9647 30.9479C24.7087 30.9479 30.9938 24.6628 30.9938 16.9188C30.9938 9.17469 24.7087 2.88965 16.9647 2.88965ZM16.9647 28.142C10.7638 28.142 5.74137 23.1196 5.74137 16.9188C5.74137 10.7179 10.7638 5.69547 16.9647 5.69547C23.1655 5.69547 28.1879 10.7179 28.1879 16.9188C28.1879 23.1196 23.1655 28.142 16.9647 28.142Z" fill="#858585"/>
</g>
<defs>
<clipPath id="clip0_4232_14249">
<rect width="33.6699" height="33.6699" fill="white" transform="translate(0.128906 0.0834961)"/>
</clipPath>
</defs>
</svg>
